<?xml version="1.0" standalone="no"?>
<!DOCTYPE svg PUBLIC "-//W3C//DTD SVG 1.1//EN" "http://www.w3.org/Graphics/SVG/1.1/DTD/svg11.dtd">
<svg xmlns="http://www.w3.org/2000/svg">
<metadata>Generated by Fontastic.me</metadata>
<defs>
<font id="tk-icons" horiz-adv-x="512">
<font-face font-family="tk-icons" units-per-em="512" ascent="480" descent="-32"/>
<missing-glyph horiz-adv-x="512" />

<glyph glyph-name="dp-all-payment" unicode="&#57345;" d="M236 167c-4-4-10-4-14 0-3 4-3 10 0 14 4 3 10 3 14 0 4-4 4-10 0-14z m-116-155l-108 108c-4 4-4 10 0 14l46 46c7 7 16 9 26 8 21 40 62 61 108 61 17 0 33-3 49-10l107 0c12 0 23-5 30-14l57 58c14 16 38 18 54 4 16-13 18-37 5-54-93-110-87-103-88-103-16-16-37-25-60-25l-128 0c-8 0-15-3-20-8l-11-10c4-10 2-21-6-29l-47-46c-4-4-10-4-14 0z m72 218c-41 0-74-19-92-52l76-75 8 8c9 8 21 13 34 13l128 0c17 0 34 7 47 19l86 103c7 8 6 20-2 27-8 7-21 6-27-3-1 0-9-8-64-64 1-2 1-3 1-5 0-21-18-38-39-38l-78 0c-6 0-10 4-10 9 0 5 4 10 10 10l78 0c11 0 19 8 19 19 0 11-8 19-19 19l-109 0c-2 0-3 0-4 1-14 6-28 9-43 9z m-121-64l-39-39 95-95 40 39c4 4 4 10 0 14-87 86-82 81-84 82-3 3-8 2-12-1z m53 320l0-135 313 0 0 135z m0 17l313 0c9 0 17-8 17-17l0-135c0-10-8-17-17-17l-313 0c-9 0-17 7-17 17l0 135c0 9 8 17 17 17z m152-134l0 12-27 0 0 84 27 0 0 11 11 0 0-11 4 0c18 0 26-8 26-23 0-9-4-15-11-18 9-2 14-8 14-19 0-16-9-24-27-24l-6 0 0-12z m-12 60l12 0 0 25-12 0z m23 0l2 0c10 0 14 5 14 12 0 9-3 13-15 13l-1 0z m-23-38l12 0 0 27-12 0z m23 0l3 0c11 0 15 4 15 15 0 8-4 12-16 12l-2 0z"/>
<glyph glyph-name="dp-calendar-display" unicode="&#57346;" d="M455 460c26 0 48-21 48-48l0-366c0-20-17-37-37-37l-420 0c-20 0-37 17-37 37l0 25c0 5 4 9 10 9l26 0c-17 15-28 36-28 60 0 44 36 79 79 79 44 0 79-35 79-79 0-24-10-45-27-60l96 0c6 0 10-4 10-9 0-6-4-10-10-10l-216 0 0-15c0-10 8-18 18-18l388 0c-3 6-4 12-4 18l0 15-103 0c-5 0-10 4-10 10 0 5 5 9 10 9l112 0c6 0 10-4 10-9l0-25c0-10 8-18 17-18 10 0 18 8 18 18l0 366c0 16-13 29-29 29l-46 0 0-12c0-16-13-29-29-29-16 0-29 13-29 29l0 12-162 0 0-12c0-16-13-29-29-29-16 0-29 13-29 29l0 12c-1 0-2 0-3 0l-38 0c-16 0-29-13-29-29l0-32 348 0c5 0 9-4 9-9 0-6-4-10-9-10l-348 0 0-113c0-5-4-10-10-10-5 0-9 5-9 10l0 164c0 27 21 48 48 48l38 0c1 0 2 0 3 0l0 14c0 16 13 29 29 29 16 0 29-13 29-29l0-14 162 0 0 14c0 16 13 29 29 29 16 0 29-13 29-29l0-14z m-285-31l0 45c0 5-5 10-10 10-5 0-10-5-10-10l0-45c0-5 5-10 10-10 5 0 10 5 10 10z m219 0l0 45c0 5-4 10-9 10-6 0-10-5-10-10l0-45c0-5 4-10 10-10 5 0 9 5 9 10z m-352-289c0-33 26-60 59-60 33 0 60 27 60 60 0 33-27 60-60 60-33 0-59-27-59-60z m424 238c2-2 3-5 3-7 0-3-1-5-3-7-2-2-5-3-7-3-3 0-5 1-7 3-2 2-3 4-3 7 0 2 1 5 3 7 2 1 4 2 7 2 2 0 5-1 7-2z m-164-300c2-2 3-5 3-7 0-3-1-5-3-7-2-2-4-3-7-3-2 0-5 1-7 3-1 2-2 4-2 7 0 2 1 5 2 7 2 1 5 2 7 2 3 0 5-1 7-2z m-70 132c21 0 37-17 37-37 0-20-16-37-37-37-20 0-36 17-36 37 0 20 16 37 36 37z m0-54c10 0 18 7 18 17 0 10-8 17-18 17-9 0-17-7-17-17 0-10 8-17 17-17z m90 54c21 0 37-17 37-37 0-20-16-37-37-37-20 0-36 17-36 37 0 20 16 37 36 37z m0-54c10 0 18 7 18 17 0 10-8 17-18 17-9 0-17-7-17-17 0-10 8-17 17-17z m90 54c21 0 37-17 37-37 0-20-16-37-37-37-20 0-36 17-36 37 0 20 16 37 36 37z m0-54c10 0 18 7 18 17 0 10-8 17-18 17-9 0-17-7-17-17 0-10 8-17 17-17z m-270 154c21 0 37-16 37-37 0-20-16-36-37-36-20 0-36 16-36 36 0 21 16 37 36 37z m0-54c10 0 18 8 18 17 0 10-8 18-18 18-9 0-17-8-17-18 0-9 8-17 17-17z m180 54c21 0 37-16 37-37 0-20-16-36-37-36-20 0-36 16-36 36 0 21 16 37 36 37z m0-54c10 0 18 8 18 17 0 10-8 18-18 18-9 0-17-8-17-18 0-9 8-17 17-17z m90 54c21 0 37-16 37-37 0-20-16-36-37-36-20 0-36 16-36 36 0 21 16 37 36 37z m0-54c10 0 18 8 18 17 0 10-8 18-18 18-9 0-17-8-17-18 0-9 8-17 17-17z m-180 54c21 0 37-16 37-37 0-20-16-36-37-36-20 0-36 16-36 36 0 21 16 37 36 37z m0-54c10 0 18 8 18 17 0 10-8 18-18 18-9 0-17-8-17-18 0-9 8-17 17-17z m-96-92c4-4 4-10 0-14l-38-38c-2-2-5-3-7-3-3 0-5 1-7 3l-18 17c-3 4-3 10 0 14 4 4 10 4 14 0l11-11 31 32c4 4 10 4 14 0z"/>
<glyph glyph-name="dp-credit-card" unicode="&#57347;" d="M497 424c4-5 6-12 6-18l-14-238c-1-13-12-24-24-24-1 0-1 0-2 0l-12 1 0-65c0-14-11-25-25-25l-393 0c-13 0-24 11-24 25l0 238c0 14 11 25 24 25l24 0 5 91c1 13 13 24 26 23l392-25c7 0 13-3 17-8z m-66-344l0 238c0 3-2 5-5 5l-393 0c-2 0-5-2-5-5l0-47 347 0c6 0 10-4 10-10 0-5-4-10-10-10l-347 0 0-171c0-3 3-5 5-5l393 0c3 0 5 2 5 5z m51 308l2 19c0 2-1 3-2 3 0 1-1 2-3 2l-392 25c-3 0-5-2-6-5l-5-89 350 0c14 0 25-11 25-25l0-153 13 0c3-1 5 1 6 4l11 199-330 21c-6 0-10 5-9 11 0 5 4 9 10 9z m-116-206c25 0 46-22 46-48 0-27-21-48-46-48-10 0-20 3-27 9-8-6-17-9-27-9-25 0-46 21-46 48 0 26 21 48 46 48 10 0 19-3 27-9 7 6 17 9 27 9z m-40-72c-4 7-6 15-6 24 0 9 2 17 6 24-4 2-9 4-14 4-15 0-27-13-27-28 0-16 12-28 27-28 5 0 10 1 14 4z m40-4c15 0 27 12 27 28 0 15-12 28-27 28-15 0-27-13-27-28 0-16 12-28 27-28z m-291 26c1 0 1-1 1-2 0 0 0-1-1-2 0 0 0-1 0-1 0-1-1-2-1-2 0-1-1-1-1-2-2-2-4-3-7-3-1 0-1 0-2 1 0 0-1 0-2 0 0 0-1 1-1 1-1 0-1 1-2 1 0 1-1 1-1 2 0 0-1 1-1 2 0 0 0 1 0 1-1 1-1 2-1 2 0 1 0 2 1 2 0 1 0 2 0 2 0 1 1 1 1 2 0 0 1 1 1 1 1 1 1 1 2 2 0 0 1 0 1 1 1 0 2 0 2 0 3 1 7 0 9-3 0 0 1-1 1-1 0-1 1-1 1-2 0 0 0-1 0-2z m88 8c5 0 9-4 9-10 0-5-4-10-9-10l-58 0c-6 0-10 5-10 10 0 6 4 10 10 10z"/>
<glyph glyph-name="dp-deposit" unicode="&#57348;" d="M236 168c-4-4-10-4-14 0-3 4-3 10 0 14 4 3 10 3 14 0 4-4 4-10 0-14z m-46 229c0 58 48 106 107 106 58 0 106-48 106-106 0-59-48-106-106-106-59 0-107 47-107 106z m193 0c0 48-39 87-86 87-48 0-87-39-87-87 0-48 39-87 87-87 47 0 86 39 86 87z m-263-385l-108 109c-4 4-4 10 0 14l46 46c7 7 16 9 26 8 21 40 62 61 108 61 17 0 33-3 49-9l107 0c12 0 23-6 30-15l57 59c14 16 38 18 54 4 16-14 18-38 5-54-93-111-87-104-88-105-16-16-37-24-60-24l-128 0c-8 0-15-3-20-8l-11-10c4-10 2-22-6-30l-47-46c-4-4-10-4-14 0z m72 219c-41 0-74-19-92-52l76-75 8 7c9 9 21 14 34 14l128 0c17 0 34 7 47 19l86 103c7 8 6 20-2 27-8 7-21 6-27-2-1 0-9-8-64-65 1-2 1-3 1-5 0-21-18-38-39-38l-78 0c-6 0-10 4-10 9 0 5 4 10 10 10l78 0c11 0 19 8 19 19 0 11-8 19-19 19l-109 0c-2 0-3 1-4 1-14 6-28 9-43 9z m-121-64l-39-39 95-96 40 40c4 3 4 9 0 13-87 87-82 82-84 83-3 3-8 2-12-1z m223 162l0 14-33 0 0 105 33 0 0 14 14 0 0-14 5 0c21 0 30-10 30-28 0-12-5-19-12-23 10-3 16-10 16-24 0-20-11-30-32-30l-7 0 0-14z m-15 74l15 0 0 32-15 0z m29 0l2 0c12 0 17 6 17 15 0 11-4 17-19 17l0 0z m-29-47l15 0 0 34-15 0z m29 0l3 0c13 0 18 4 18 18 0 11-4 16-20 16l-1 0z"/>
<glyph glyph-name="dp-download-tour" unicode="&#57349;" d="M448 205l0 219c0 4-4 7-8 7l-59 0 0-229c-16-6-31-16-42-29l-310 0 0-35c0-4 4-7 8-7l280 0c-1-7-2-13-3-20l-26 0 0-44c25-3 45-23 45-48 0-6-5-10-10-10l-169 0c-5 0-10 4-10 10 0 25 20 45 45 48l0 44-152 0c-15 0-28 12-28 27l0 286c0 15 13 27 28 27l59 0 0 33c0 10 9 19 20 19l245 0c11 0 20-9 20-19l0-33 59 0c15 0 28-12 28-27l0-226c-6 3-13 5-20 7z m-209-43c2 0 5-2 7-3 1-2 3-5 3-7 0-3-2-5-3-7-2-2-5-3-7-3-3 0-6 1-8 3-1 2-2 4-2 7 0 2 1 5 2 7 2 1 5 3 8 3z m-30-95l59 0 0 44-59 0z m102-39c-4 12-15 20-28 20l-88 0c-14 0-25-8-29-20z m-282 396l0-232 67 0 0 105c0 5 5 10 10 10 6 0 10-5 10-10l0-105 245 0 0 292-245 0 0-117c0-5-4-10-10-10-5 0-10 5-10 10l0 64-59 0c-4 0-8-3-8-7z m77-100c-2 0-5 1-7 3-2 2-3 5-3 7 0 3 1 5 3 7 2 2 5 3 7 3 3 0 6-1 7-3 2-2 3-4 3-7 0-2-1-5-3-7-1-2-4-3-7-3z m195-26c5 0 10-4 10-9 0-6-5-10-10-10l-117 0c-5 0-10 4-10 10 0 5 5 9 10 9z m0-42c2 0 5-1 7-3 2-2 3-4 3-7 0-2-1-5-3-6-2-2-5-3-7-3-3 0-6 1-7 3-2 1-3 4-3 6 0 3 1 5 3 7 1 2 4 3 7 3z m-39 0c6 0 10-4 10-10 0-5-4-9-10-9l-78 0c-5 0-10 4-10 9 0 6 5 10 10 10z m-105 101l161 0 0 13-29 23-37-26-48 37-47-35z m108 41c-3 3-7 7-14 7-6 0-10-3-12-5l14-11z m53 50l-161 0 0-57 47 35 21-15c5 5 13 12 26 12 14 0 23-8 28-15l11 8 28-24z m-179-109l0 127 197 0 0-127z m278-311c-47 0-86 37-86 82 0 46 39 83 86 83 47 0 86-37 86-83 0-45-39-82-86-82z m-58 81l5-5c1-1 3-1 5 0l38 38 0-83c0-2 1-3 3-3l7 0c2 0 3 1 3 3l0 83 38-38c1-1 3-1 4 0l5 5c2 1 2 3 0 4l-51 52c-2 1-4 1-5 0l-52-52c-1-1-1-3 0-4z"/>
<glyph glyph-name="dp-eat" unicode="&#57350;" d="M256 391c81 0 146-67 146-149 0-82-65-149-146-149-80 0-146 67-146 149 0 82 66 149 146 149z m0-278c70 0 127 58 127 129 0 71-57 129-127 129-70 0-127-58-127-129 0-71 57-129 127-129z m87 177c8-15 12-31 12-48 0-55-44-100-99-100-54 0-98 45-98 100 0 55 44 100 98 100 5 0 11 0 16-1 5-1 9-6 8-11 0 0 0-1 0-1-1-5-6-8-11-7-4 0-9 1-13 1-43 0-79-37-79-81 0-44 36-81 79-81 44 0 79 37 79 81 0 13-3 27-9 39-3 4-1 10 3 13 0 0 1 0 1 0 4 2 10 1 13-4z m-25 34c2-2 3-4 3-7 0-1 0-1 0-2-1 0-1-1-1-2 0 0-1-1-1-1 0-1-1-1-1-2-1 0-1-1-2-1 0 0 0 0 0 0 0-1-1-1-1-1-1 0-1 0-2-1-1 0-1 0-2 0-1 0-1 0-2 0 0 1-1 1-2 1 0 0-1 1-1 1-1 0-1 1-2 1 0 1-1 1-1 2 0 0-1 1-1 1 0 1 0 2 0 2-1 1-1 1-1 2 0 1 0 1 1 2 0 0 0 0 0 1 0 0 0 0 0 1 0 0 1 1 1 2 0 0 1 1 1 1 1 0 1 1 2 1 0 1 1 1 1 1 1 0 2 1 2 1 1 0 3 0 4 0 1 0 1-1 2-1 0 0 1 0 1-1 1 0 1-1 2-1z m185-223c0-5 0-10-2-14 0-1-1-2-1-3 0-1-1-2-1-3-5-9-14-15-25-17-1 0-3 0-4 0-15 0-29 11-32 26 0 1 0 2 0 3l-40 329c-1 9 3 18 12 22 8 4 18 2 24-5l1 0c8-9 14-18 20-27 9-16 14-33 16-51z m-86 323l25-207 27 3-17 138c-2 16-6 30-14 44-5 8-10 16-17 23l-1 1c0 0 0 1-1 1 0 0 0 0-1-1-1 0-1-1-1-2z m66-332c0 2 1 5 0 7l-12 102-27-4 13-101c1-8 7-13 15-12 5 0 9 4 11 8z m-355 345c5-1 9-6 8-11l-8-73c-3-18-15-32-32-36l-20-217c-1-9-5-17-12-23-6-5-13-8-21-8-1 0-3 0-4 0l0 0c-9 2-17 6-23 14-6 7-8 16-6 25 0 0 0 0 0 0l32 215c-15 8-24 25-22 44l9 72c0 6 5 10 11 9 5-1 9-6 8-11l-9-73c-1-11 5-22 16-25l7-1 11 96c1 5 6 9 11 8 5 0 9-5 8-11l-11-95 6-1c11 1 20 9 22 21l8 72c1 6 6 10 11 9z m-71-335l19 215-7 1c0 0 0 0 0 0 0 0 0 0 0 0l-8 1-32-214c-1-4 0-7 2-11 3-3 6-5 10-5l0 0c4-1 8 0 11 3 3 2 5 6 5 10z"/>
<glyph glyph-name="dp-hold-mobile" unicode="&#57351;" d="M154 448c2-2 3-4 3-7 0-2-1-5-3-7-2-1-4-3-7-3-3 0-5 2-7 3-2 2-3 5-3 7 0 3 1 5 3 7 2 2 4 3 7 3 3 0 5-1 7-3z m282-119c22 0 39-18 39-40l0-156c0-12-2-23-7-35l-36-83c-2-4-5-6-9-6-1 0-2 0-4 1-5 2-7 8-5 13l36 83c4 9 6 18 6 27l0 156c0 11-9 20-20 20-12 0-21-9-21-20l0-86c0-3-1-6-4-7l-9-7c-35-24-55-63-55-106l0-64c0-6-5-10-10-10l-187 0c-27 0-49 22-49 48l0 36-40 12c-15 5-24 18-24 33 0 10 4 19 11 26-7 6-11 16-11 26 0 10 4 19 11 25-7 7-11 16-11 26 0 10 4 19 11 26-7 6-11 16-11 26 0 11 5 21 14 27 8 7 20 9 30 5l20-6 0 136c0 26 22 48 49 48l225 0c26 0 48-22 48-48l0-128c4 1 8 2 13 2z m-374-24c-4-3-6-8-6-12 0-7 4-13 11-15l45-13c4-2 9-1 13 2 4 3 6 7 6 12 0 7-4 12-11 14l-45 14c-1 0-3 1-4 1-3 0-6-1-9-3z m0-52c-4-3-6-7-6-12 0-6 4-12 11-14l35-11 10-3c4-1 9 0 13 2 4 3 6 8 6 12 0 7-4 13-11 15l-45 13c-1 1-3 1-4 1-3 0-6-1-9-3z m69-77c0 7-4 12-11 14l-14 5-31 9c-1 0-3 1-4 1-3 0-6-1-9-3-4-3-6-8-6-12 0-7 4-13 11-15l35-11 10-2c4-2 9-1 13 2 4 3 6 7 6 12z m-19-66c4-1 9 0 13 2 4 3 6 8 6 12 0 7-4 13-11 15l-14 4 0 0-31 9c-1 1-3 1-4 1-3 0-6-1-9-3-4-3-6-7-6-12 0-6 4-12 11-14z m215-82l0 33-206 0 0-4c0-16 13-29 29-29z m77 285l0 118-223 0c-5 0-9 5-9 10 0 5 4 10 9 10l223 0 0 4c0 16-13 29-29 29l-225 0c-16 0-29-13-29-29l0-142 5-1c15-5 24-18 24-33 0-10-4-19-11-26 7-6 11-15 11-26 0-10-4-19-11-25 7-7 11-16 11-26 0-10-4-19-11-26 7-6 11-15 11-26 0-11-5-21-14-27-4-4-10-6-15-7l0-9 206 0 0 2c0 49 24 95 64 122l5 4 0 80c0 9 3 17 8 24z m-71 13c39-39 39-101 0-140-19-18-43-28-70-28-26 0-51 10-70 28-14 15-23 33-27 53-3 19-1 39 7 57 2 5 8 7 13 5 5-2 7-8 5-13-14-30-7-65 16-88 15-15 35-23 56-23 21 0 41 8 56 23 31 31 31 81 0 112-23 23-57 30-88 16-5-2-10 1-12 5-3 5 0 11 5 13 18 8 37 10 57 7 20-4 38-13 52-27z m-126 0c4-4 4-10 0-14-2-2-4-3-7-3-2 0-5 1-7 3l0 0c-3 4-3 10 0 14 4 3 10 3 14 0z m110-34c4-4 4-10 0-14l-50-49c-2-2-4-3-7-3-2 0-4 1-6 3l-31 30c-3 4-3 10 0 13 4 4 10 4 14 0l23-23 44 43c3 4 10 4 13 0z"/>
<glyph glyph-name="dp-phone-contact" unicode="&#57352;" d="M165 162c1-1 2-4 2-6 0-3-1-5-2-7-2-2-5-3-7-3-3 0-5 1-7 3-2 2-3 4-3 7 0 2 1 5 3 6 2 2 4 3 7 3 2 0 5-1 7-3z m322-10c10-11 16-24 16-39 0-15-6-29-16-39l-19-18c-30-30-69-47-112-47-42 0-82 17-112 47l-68 68c-4 4-4 10 0 14 3 4 9 4 13 0l69-69c26-26 61-41 98-41 31 0 61 11 85 29l-119 120-10-10c-4-4-10-4-14 0l-131 131c-2 2-3 5-3 7 0 3 1 5 3 7l41 41c14 14 14 36 0 50l-70 70c-14 14-37 14-51 0l-17-17 74-74c4-4 4-10 0-14-2-2-4-3-7-3-2 0-5 1-7 3l-73 73c-42-54-38-133 12-183l68-68c4-3 4-10 0-13-4-4-10-4-14 0l-68 67c-61 62-61 163 0 224l19 19c21 21 56 21 78 0l69-70c22-21 22-56 0-78l-34-34 118-118 10 10c0 0 0 0 0 0 0 0 0 0 0 0l24 25c10 10 24 16 39 16 15 0 29-6 39-16z m-14-64c7 6 11 15 11 25 0 9-4 18-11 25l-70 70c-6 7-15 10-25 10-10 0-19-3-25-10l-18-18 121-120z m-306 270c2-2 3-4 3-7 0-2-1-5-3-7-1-1-4-2-6-2-3 0-5 1-7 2-2 2-3 5-3 7 0 3 1 5 3 7 2 2 4 3 7 3 2 0 5-1 6-3z m288 145c26 0 48-22 48-48l0-110c0-27-22-48-48-48l-37 0-28-37c-2-3-5-4-8-4 0 0 0 0 0 0-3 0-5 1-7 4l-28 37-37 0c-27 0-48 21-48 48l0 110c0 26 21 48 48 48z m29-158l0 110c0 16-13 29-29 29l-145 0c-16 0-29-13-29-29l0-110c0-16 13-29 29-29l41 0c3 0 6-2 8-4l23-30 24 30c1 2 4 4 7 4l42 0c16 0 29 13 29 29z m-63 82c4-4 4-10 0-14l-38-38c-2-2-5-3-7-3-3 0-5 1-7 3l-18 17c-3 4-3 10 0 14 4 4 10 4 14 0l11-11 31 32c4 3 10 3 14 0z"/>
<glyph glyph-name="dp-ready" unicode="&#57353;" d="M453 265c14-14 22-33 22-53l0-195c0-4-3-8-8-8l-93 0c-48 0-88 36-92 82l-203 0c-24 0-42 19-42 42l0 329c0 22 18 41 42 41l270 0c4 0 8-4 8-8l0-139c3-2 6-4 9-6z m-400-132c0-14 12-25 26-25l202 0c0 7-2 13-7 18l-42 40c0 0 0 1 0 1 0 0 0 0 0 0l-10 10c-12 10-16 25-12 40 4 14 15 25 30 29 15 4 31 0 41-11l59-58 0 309-261 0c-14 0-26-11-26-24z m180 55l5-4 36 35-5 4c-10 10-26 10-36 0-4-4-7-11-7-17 0-7 3-13 7-18z m226-162l0 186c0 16-7 30-18 41l-84 82 0-174 23-23c3-3 3-8 0-11-3-3-8-3-12 0l-82 80-36-35 36-35c8-8 12-18 12-29l0-8c0-41 34-74 76-74z m-380 378c-5 0-9 4-9 8l0 33c0 14 12 25 26 25l33 0c5 0 9-4 9-8 0-5-4-9-9-9l-33 0c-5 0-9-3-9-8l0-33c0-4-4-8-8-8z m50-263c5 0 9-4 9-8 0-5-4-9-9-9l-33 0c-14 0-26 11-26 25l0 33c0 4 4 8 9 8 4 0 8-4 8-8l0-33c0-5 4-8 9-8z m152 222c0-45-37-82-84-82-47 0-84 37-84 82 0 45 37 82 84 82 47 0 84-37 84-82z m-17 8c-3 19-13 35-29 46 8-14 12-30 12-46z m-76 55c-12-6-23-27-25-55l25 0z m0-71l-25 0c2-28 13-49 25-55z m17-55c12 6 24 27 25 55l-25 0z m0 71l25 0c-1 28-13 49-25 55z m-46 46c-16-11-27-27-29-46l17 0c0 16 4 32 12 46z m-29-62c2-19 13-35 29-46-8 14-12 30-12 46z m105-46c16 11 26 27 29 46l-17 0c0-16-4-32-12-46z"/>
<glyph glyph-name="dp-shopping-display" unicode="&#57354;" d="M310 269c-8 4-14 12-14 22 0 13 11 24 25 24 14 0 25-11 25-24 0-12-8-22-20-25l0-26c0-40-31-73-70-73-39 0-70 33-70 73l0 26c-12 3-20 13-20 25 0 13 11 24 25 24 14 0 25-11 25-24 0-10-6-18-14-22l0-29c0-31 24-56 54-56 30 0 54 25 54 56z m4 26c1 0 2 0 3 0l1 0c4 0 8-3 8-8l0-3c2 1 3 4 3 7 0 4-3 8-8 8-3 0-6-2-7-4z m-128-11l0 3c0 5 4 8 8 8 2 0 3 0 4-1-1 3-4 5-7 5-5 0-8-4-8-8 0-3 1-6 3-7z m120 71l-11 50-16-4c-1-1-4-2-6-2l-98-24 4-20z m68 0l7 29c0 1 0 1 0 2 0 2 1 4 2 5l5 21-99 23-3-15 13 4c2 0 4 0 6-1 2-2 4-4 4-6l15-62z m-251 0l39 0-6 25c-1 4 2 9 6 10l77 19-6 47-120-14 6-51c1-2 2-3 2-5 0-1-1-2-1-3z m318 0c5 0 8-4 8-8l17-329c0-2 0-5-2-6-2-2-4-3-6-3l-404 0c-2 0-4 1-6 3-2 1-2 4-2 6l17 329c0 4 3 8 8 8l21 35c1 3 4 4 7 4l3 0-6 54c-1 4 3 8 7 9l93 11c0 2 0 4 2 6 13 18 35 29 57 29 35 0 66-26 71-59l74-18c2 0 4-2 5-3 1-2 1-5 1-7l-5-22 12 0c3 0 6-1 7-4l21-35z m-8-20l-354 0-16-309 386 0z m-343 20l17 0-3 22 0 0z m332 0l-14 22-11 0-5-22z m-154 61l7 31c0 2 2 4 4 5 2 1 4 2 6 1l23-5c-7 22-28 38-53 38-14 0-29-5-39-16l23 3c3 0 5 0 6-2 2-1 3-3 4-5l6-53z"/>
<glyph glyph-name="dp-travel" unicode="&#57355;" d="M423 212l0 60c0 32-26 58-58 58l-42 0c3 5 5 11 6 17l2 0c14 0 25 11 25 24 0 14-11 25-25 25l0 25c5 0 8 3 8 8 0 41-33 74-75 74l-16 0c-39 0-71-29-75-66l-26 0c-4 0-8-4-8-8 0-5 4-8 8-8l34 0 0-25c-14 0-25-11-25-25 0-13 11-24 25-24l2 0c1-6 3-12 6-17l-42 0c-32 0-58-26-58-58l0-60c-16-23-25-51-25-79l0-116c0-4 4-8 8-8l368 0c4 0 8 4 8 8l0 116c0 28-9 56-25 79z m8-153l-58 0 0 91c0 7-3 13-7 18l-1 0c-11 11-17 26-17 41l0 40c50-17 83-64 83-116z m-275 47l35 34c15 14 23 33 23 53l0 63 9 0 0-25c0-18 15-33 33-33 18 0 33 15 33 33l0 25 9 0 0-63c0-20 8-39 23-53l35-34 0-80-200 0z m25 103l0 44 1 1c1 0 3 0 4 0 1 1 3 1 4 1 2 0 4 0 6 1 0 0 1 0 2 0l0-63c0-15-7-30-18-41l-24-23 0 21c0 3 1 5 2 6l1 1c14 14 22 33 22 52z m47 212c-7-10-18-16-30-17l0 0 0 17z m85 0c-4-10-13-17-24-17l-8 0c-12 1-24 7-31 17z m-115-33l0 0 0 0c16 0 31 7 41 19 11-12 26-19 42-19l8 0c9 0 18 3 25 8l0-33c0-13-4-26-12-36-14-17-36-25-57-21-2 1-4 1-6 2-1 0-3 1-5 2-9 3-17 9-24 17-8 10-12 23-12 36z m41-124l0 27c1 0 1 0 1 0 2-1 4-1 6-1 1 0 1-1 2-1 1 0 1 0 2 0 1 0 1 0 2 0 1 0 3 0 4 0 2 0 3 0 5 0 0 0 1 0 1 0 1 0 1 0 2 0 1 0 2 1 2 1 2 0 4 0 6 1 0 0 0 0 1 0l0-60c0-9-8-16-17-16-9 0-17 7-17 16z m81-9c0 0 1 0 2 0 3 0 6-1 9-2l0-44c0-19 8-38 22-52l1-1c1-1 2-3 2-6l0-21-24 23c-11 11-18 26-18 41l0 63c2-1 4-1 6-1z m86 17l0-40c0 0 0 0 0 0-3 3-6 6-9 8-1 1-2 1-2 2-3 2-7 5-10 7 0 0-1 0-1 0-3 2-6 4-10 6-1 1-1 1-2 1-3 2-7 4-11 5 0 1-1 1-2 1-4 2-8 3-12 4l0 0c-2 1-3 1-5 2 0 0 0 0 0 0-1 0-1 0-2 0-1 1-2 1-3 1-1 0-2 0-2 1-1 0-1 0-1 0l-2 0c-2 0-3 1-5 1-1 0-2 0-4 0 0 0-1 1-2 1-1 0-2 0-2 0l-2 0c0 0-1 0-2 0-3 0-6 0-9 0l-17 0 0 25c1 0 2 1 3 1 1 1 2 1 3 2 2 1 3 2 5 3 1 1 2 1 3 2 1 1 3 3 4 4 1 1 2 1 3 2 0 1 1 2 2 3l53 0c23 0 41-19 41-42z m-69 105c2-2 3-4 2-6 0-4-3-8-8-8l0 16c2 0 5 0 6-2z m-89 109l16 0c29 0 54-21 58-49l-132 0c4 28 29 49 58 49z m-75-115c0 2 0 5 2 6 2 2 4 2 6 2l0-16c-5 0-8 4-8 8z m-67-99c0 23 18 42 41 42l53 0c1-1 2-2 3-3 0-1 1-1 1-2 2-2 5-4 7-5 0 0 1-1 1-1 2-1 4-3 6-4 1 0 2-1 2-1 1-1 2-1 3-1l0-25-17 0c-12 0-24-1-36-4-3-1-7-2-10-3-1-1-2-1-3-1-3-1-5-2-8-3-1-1-2-1-3-2-3-1-6-2-8-4-1 0-1 0-2-1-3-2-6-3-9-5-1-1-2-2-3-2-2-2-4-3-6-5-1-1-2-2-3-2-2-2-5-4-7-6 0-1-1-1-2-2 0 0 0 0 0 0z m-2-67c15 20 36 36 60 44l0-40c0-15-6-30-17-41l-1 0c-4-5-7-11-7-18l0-91-58 0 0 74c0 25 8 51 23 72z m-23-163l58 0 0-16-58 0z m350-16l-58 0 0 16 58 0z"/>
<glyph glyph-name="dp-update" unicode="&#57356;" d="M437 266l0 0c36 0 66-29 66-65 0-36-30-65-66-65-1 0-2 0-4 0-8-24-22-45-40-64-26-28-61-47-98-55-13-2-26-3-39-3-52-1-102 21-137 58-18 19-32 40-40 64-2 0-3 0-4 0-5 0-10 0-14 2 0-3 1-5 2-8 2-4 0-9-5-10-1-1-2-1-3-1-3 0-6 2-7 5-3 7-5 14-7 21-19 12-31 32-32 54 0 23 11 44 29 56 2 8 3 15 5 21 1 5 6 7 10 6 5-1 7-6 6-10-1-3-1-5-2-8 6 2 12 2 18 2 1 0 2 0 4 0 8 24 22 46 40 64 35 38 85 59 137 59 52 0 102-21 137-59 18-18 32-40 40-64 2 0 3 0 4 0z m-20-3c-7 19-18 37-32 52-16-7-34-13-51-16 8-29 12-59 12-90l26 0c0 1 0 1 0 2 0 0 0 1 0 1 1 3 1 6 2 9 0 1 1 1 1 2 1 2 2 5 3 8 1 0 1 1 1 1 1 3 3 5 5 8 0 0 0 0 0 1 2 2 4 4 7 7l0 0c2 2 4 4 7 6 0 0 0 0 1 0 2 2 5 4 8 5l1 1c3 1 6 2 8 3 1 0 1 0 1 0z m-46-190c0 1 1 2 2 2-14 6-29 10-44 13-7-19-17-37-30-53 2 1 5 2 7 2 2 1 5 2 7 2 3 1 6 3 9 4 2 1 4 2 6 3 3 1 6 2 9 4 2 1 4 2 6 3 3 2 6 4 8 5 2 2 4 3 6 5 3 1 5 3 8 5 2 2 4 3 6 5z m-172-34c2 0 5-1 7-2 2-1 5-1 7-2-13 16-23 34-30 53-15-3-30-7-44-13 1-1 2-1 2-2 2-2 4-3 6-5 3-2 5-4 8-6 2-1 4-2 6-4 2-1 5-3 8-5 2-1 4-2 6-3 3-2 6-3 9-4 2-1 4-2 6-3 3-1 6-3 9-4z m49 268l0 64c-19-5-36-27-48-60 16-2 32-3 48-4z m51 60l0 0c13-16 23-33 30-53 15 3 29 8 44 13-21 19-46 33-74 40z m13-56l0 0c-12 33-29 55-48 60l0-64c16 1 32 2 48 4z m-129 3c7 20 17 38 30 53-28-7-53-21-74-40 15-5 29-10 44-13z m12-18c-8-28-12-57-13-87l66 0 0 82c-18 0-36 2-53 5z m53-103l-66 0c1-29 5-58 13-86 17 2 35 4 53 4z m16-98l0-64c19 5 36 27 48 60-16 2-32 4-48 4z m-16 0c-16 0-32-2-48-4 12-33 29-55 48-60z m69 12c8 28 12 57 13 86l-66 0 0-82c18 0 36-2 53-4z m-53 102l66 0c-1 30-5 59-13 87-17-3-35-5-53-5z m-137 106c-14-15-25-33-32-52 0 0 0 0 0 0 3-1 7-2 10-4l0 0c3-1 6-3 9-5l0 0c5-4 10-8 14-14 0 0 0 0 0 0 2-3 4-5 5-8 0 0 0-1 1-1 1-3 2-6 3-8 0-1 1-1 1-2 1-3 1-6 2-9 0 0 0-1 0-1 0-1 0-1 0-2l26 0c0 31 4 61 12 90-17 3-35 9-51 16z m-75-157l0 0c7-4 15-6 23-6 3 0 5 0 8 1 24 4 41 24 41 48 0 24-17 45-41 48-3 1-5 1-8 1-23 0-43-15-48-37-5-22 5-45 25-55z m44-19l0 0c-1 0-1 0-1 0 8-19 18-36 32-51 16 7 34 12 51 16-8 29-12 59-12 89l-26 0c0-1 0-1 0-2 0 0 0-1 0-1-1-3-1-6-2-9 0 0-1-1-1-1-1-3-2-6-3-8 0-1-1-1-1-2-1-2-3-5-5-7 0-1 0-1 0-1-2-3-4-5-6-7l-1 0c-2-2-4-4-7-6 0-1 0-1-1-1-2-2-5-3-8-5l-1 0c-3-2-5-3-8-4z m289-51l0 0c14 15 25 32 32 51 0 0 0 0 0 0-4 1-7 2-10 4l0 0c-3 2-6 3-9 5-5 4-10 9-14 14 0 0 0 0 0 0-2 3-4 6-5 8 0 1 0 1-1 1-1 3-2 6-3 9 0 0-1 1-1 1-1 3-1 6-2 9 0 0 0 1 0 1 0 1 0 1 0 2l-26 0c0-30-4-60-12-89 17-4 35-9 51-16z m52 64c27 0 49 22 49 49 0 27-22 49-49 49-3 0-5 0-8-1-24-3-41-24-41-48 0-24 17-44 41-48 3-1 5-1 8-1z m-315 211c-4 0-7 2-8 6-1 3 0 7 3 9 7 5 14 9 22 13 4 2 9 0 11-4 2-4 1-8-3-11-7-3-14-7-21-12-1 0-3-1-4-1z m57 45c5 2 9-1 11-5 1-4-1-9-5-10-6-2-11-4-17-7-4-1-9 1-10 5-2 4 0 9 4 11 6 2 11 4 17 6z m-123-118c-4 2-6 6-4 11 3 7 7 15 11 22 3 4 8 5 12 3 4-2 5-7 2-11-4-7-7-14-10-21-2-4-7-6-11-4z m29 41l0 0c-3 0-6 2-8 4-1 3-1 7 2 9 5 7 11 13 18 18 2 3 5 3 8 2 3-1 5-3 5-6 1-3 0-6-2-8-6-5-12-10-17-16-1-2-4-3-6-3z m68-307l0 0c3-1 4-4 4-7 0-3-1-5-4-7-2-1-5-1-8 0-7 4-14 9-21 14-3 2-4 5-4 8 1 3 3 5 5 6 3 1 6 1 8-1 7-4 13-9 20-13z m-68 64c2-4 1-8-3-11-3-2-8-1-11 2-5 7-9 15-13 22-2 4 0 9 4 11 4 2 9 1 11-3 3-7 7-14 12-21z m14-19c5-6 11-11 16-17 4-3 4-8 1-11-3-3-9-4-12-1-6 6-12 12-18 19-3 3-2 8 1 11 4 3 9 3 12-1z m87 356l-26 26c-8 8-9 20-2 28 4 5 9 7 15 7 5 1 11-1 15-5l27-27 24 0-14 14c-4 4-6 9-6 15 0 5 2 10 6 14 8 8 21 8 29 0l43-43 62 0c11 0 20-9 20-20 0-12-9-21-20-21l-144 0c-11 0-21 5-29 12z m173 13l-45 0 8-8 37 0c2 0 4 1 4 4 0 2-2 4-4 4z m-124 45c0-1 1-2 2-3l50-50 12 0-57 56c0 0-1 1-3 1-1 0-2-1-2-1-1-1-2-2-2-3z m-65-14c-1-2 0-5 1-6l27-26c4-5 11-7 17-7l49 0-8 8-44 0c-2 0-5 1-6 2l-29 29c-1 1-2 1-3 1-2 0-3 0-4-1z m-87-235l0-33c0-3-1-5-3-7l-25-16c-4-2-9-1-12 2-2 4-1 9 3 12l21 14 0 28c0 4 3 8 8 8 5 0 8-4 8-8z"/>
<glyph glyph-name="st-add" unicode="&#57344;" d="M395 288l-107 0 0 107c0 17-14 32-32 32-18 0-32-15-32-32l0-107-107 0c-17 0-32-14-32-32 0-18 15-32 32-32l107 0 0-107c0-17 14-32 32-32 18 0 32 15 32 32l0 107 107 0c17 0 32 14 32 32 0 18-15 32-32 32"/>
<glyph glyph-name="st-adventure" unicode="&#57357;" d="M277 452l32-13-32-22z m175-331c-2 3-5 6-9 7l-82 45 56 43 54-49c5-4 11-6 17-6 6 0 13 2 18 8 9 9 8 25-2 33l-69 63c-9 8-22 8-32 1l-74-57-52 79 0 70c1 0 2 1 2 1l94 66c7 5 11 14 10 23-1 8-7 16-15 19l-106 43c-7 3-16 2-23-2-7-5-11-12-11-20l0-211c0 0 1 0 1 0l-13-23-81 86c-5 5-12 8-20 8-7-1-13-4-18-10l-92-128c-8-10-6-25 5-33 4-3 9-5 14-5 8 0 15 4 20 10l75 104 72-77-25-47-41 27c-5 4-12 5-19 4-6-2-12-6-15-12l-88-145c-6-11-3-26 9-33 4-2 8-3 12-3 9 0 17 4 21 12l74 123 41-28c6-4 13-5 20-4 7 2 12 6 16 12l62 114 53-81c3-3 6-6 9-8l95-51 52-78c8-11 23-14 34-7 11 7 14 22 7 33z"/>
<glyph glyph-name="st-amusement-park" unicode="&#57358;" d="M194 454c14 0 26-11 26-24 0-14-12-25-26-25l-36 0 0-33c0-14-12-25-27-25-14 0-26 11-26 25l0 33-36 0c-14 0-26 11-26 25 0 13 12 24 26 24l36 0 0 34c0 13 12 24 26 24 15 0 27-11 27-24l0-34z m248 0c14 0 26-11 26-24 0-14-12-25-26-25l-36 0 0-33c0-14-12-25-26-25-15 0-26 11-26 25l0 33-36 0c-15 0-26 11-26 25 0 13 11 24 26 24l36 0 0 34c0 13 11 24 26 24 14 0 26-11 26-24l0-34z m-186-392c-62 0-120 22-164 63-3 3-3 9 0 12 4 3 10 3 14 0 40-37 93-58 150-58 57 0 110 21 151 59 3 3 9 3 13 0 3-4 3-9 0-12-44-41-102-64-164-64z m-157 91l0 0c-6 0-12-2-17-7-4-4-7-9-7-15 0-6 3-12 7-16 47-43 108-66 174-66 65 0 127 24 174 67 9 9 9 23 0 31-9 9-24 9-34 0-37-35-87-54-140-54-53 0-103 19-140 54-5 4-11 6-17 6z m157-153c-80 0-154 29-210 81-15 13-23 31-23 49 0 19 8 37 22 51 14 13 33 20 54 21l0 0c20 0 39-8 53-21 28-25 65-40 104-40 39 0 76 15 104 41 29 27 77 27 107 0 29-28 29-73 0-100-57-53-132-82-211-82z m0 256c13 0 24 10 24 23 0 13-11 23-24 23-14 0-25-10-25-23 0-13 11-23 25-23z m0 92c54 0 99-41 99-92 0-52-45-93-99-93-55 0-100 41-100 93 0 51 45 92 100 92z"/>
<glyph glyph-name="st-arrow-down" unicode="&#57359;" d="M119 343l135-136 136 136c13 12 33 12 45 0 13-13 13-33 0-46l-158-158c-12-12-33-12-45 0l-159 158c-12 13-12 33 0 46 13 12 33 12 46 0"/>
<glyph glyph-name="st-arrow-left" unicode="&#57360;" d="M316 64c-8 0-16 3-22 10l-157 159c-12 13-12 33 0 46l157 159c12 13 32 13 45 0 12-12 12-33 0-46l-134-136 134-136c12-13 12-34 0-46-6-7-14-10-23-10"/>
<glyph glyph-name="st-arrow-right" unicode="&#57361;" d="M181 64c9 0 17 3 23 10l156 159c13 13 13 33 0 46l-156 159c-13 13-33 13-45 0-13-12-13-33 0-46l133-136-133-136c-13-13-13-34 0-46 6-7 14-10 22-10"/>
<glyph glyph-name="st-arrow-up" unicode="&#57362;" d="M390 171l-136 136-135-136c-13-12-33-12-46 0-12 12-12 33 0 45l159 159c12 12 33 12 45 0l158-159c13-12 13-33 0-45-12-12-32-12-45 0"/>
<glyph glyph-name="st-back" unicode="&#57363;" d="M261 51c10 11 10 28 0 39l-130 138 312 0c15 0 26 13 26 28 0 15-11 28-26 28l-312 0 130 138c10 11 10 28 0 39-5 5-11 8-18 8-7 0-14-3-19-8l-174-185c-5-6-7-13-7-20 0-7 2-14 7-20l174-185c5-5 12-8 19-8 7 0 13 3 18 8"/>
<glyph glyph-name="st-back-circle" unicode="&#57364;" d="M480 256c0-124-100-224-224-224-124 0-224 100-224 224 0 124 100 224 224 224 124 0 224-100 224-224z m-215 113l-90-90c-13-13-13-33 0-46l90-90c13-13 33-13 46 0 12 12 12 33 0 45l-68 68 68 68c12 12 12 33 0 45-13 13-33 13-46 0z"/>
<glyph glyph-name="st-bag" unicode="&#57365;" d="M409 389c45 0 82-33 82-75l0-197c0-41-37-74-82-74l-306 0c-45 0-82 33-82 74l0 197c0 42 37 75 82 75l29 0 0 28c0 29 26 52 57 52l134 0c31 0 57-23 57-52l0-28z m-228-301l150 0 0 256-150 0z m260 29l0 197c0 17-15 30-32 30l-29 0 0-256 29 0c17 0 32 13 32 29z m-370 0c0-16 15-29 32-29l29 0 0 256-29 0c-17 0-32-13-32-30z m110 300l0-28 150 0 0 28c0 4-4 7-8 7l-134 0c-4 0-8-3-8-7z"/>
<glyph glyph-name="st-baht" unicode="&#57366;" d="M405 343l0-22c0-25-10-48-27-65 17-17 27-40 27-65l0-22c0-51-42-93-94-93l-38 0 0-27c0-15-13-28-28-28-15 0-28 13-28 28l0 27-83 0c-15 0-27 12-27 27l0 306c0 15 12 27 27 27l83 0 0 27c0 15 13 28 28 28 15 0 28-13 28-28l0-27 38 0c52 0 94-42 94-93z m-55-174l0 22c0 21-17 38-39 38l-38 0 0-99 38 0c22 0 39 18 39 39z m-188-39l55 0 0 99-55 0z m0 153l55 0 0 99-55 0z m149 99l-38 0 0-99 38 0c22 0 39 17 39 38l0 22c0 21-17 39-39 39z"/>
<glyph glyph-name="st-booking-ok" unicode="&#57367;" d="M111 69l290 0 0 269-94 0c-13 0-23 10-23 23l0 82-173 0z m268 316l-48 46 0-46z m62 6c4-4 7-11 7-17l0-308c0-24-20-45-45-45l-294 0c-25 0-45 21-45 45l0 380c0 24 20 45 45 45l219 0c7 0 12-3 17-7z m-125-158c7 7 7 18 0 25-7 7-19 7-26 0l-63-63-13 12c-7 7-18 7-25 0-7-7-7-18 0-25l25-25c7-7 19-7 26 0z m-63 82c58 0 104-47 104-105 0-57-46-104-104-104-57 0-104 47-104 104 0 58 47 105 104 105z"/>
<glyph glyph-name="st-burger-menu" unicode="&#57368;" d="M443 390l-374 0c-15 0-26 13-26 29 0 16 11 29 26 29l374 0c15 0 26-13 26-29 0-16-11-29-26-29z m0-163l-374 0c-15 0-26 13-26 29 0 16 11 29 26 29l374 0c15 0 26-13 26-29 0-16-11-29-26-29z m0-163l-374 0c-15 0-26 13-26 29 0 16 11 29 26 29l374 0c15 0 26-13 26-29 0-16-11-29-26-29z"/>
<glyph glyph-name="st-bus" unicode="&#57369;" d="M421 131l0 289c0 13-12 24-26 24l-278 0c-14 0-26-11-26-24l0-289c0-13 12-24 26-24l278 0c14 0 26 11 26 24z m-26 360c41 0 74-32 74-71l0-289c0-39-33-71-74-71l-4 0 0-8c0-17-15-31-32-31l-33 0c-18 0-32 14-32 31l0 8-65 0 0-8c0-17-15-31-33-31l-32 0c-18 0-32 14-32 31l0 8-15 0c-41 0-74 32-74 71l0 289c0 39 33 71 74 71z m-58-204l0 78-162 0 0-78 23 0 57 55c9 9 25 10 34 1 10-10 10-24 1-33l-24-23z m24 124c13 0 24-10 24-23l0-124c0-13-11-24-24-24l-210 0c-13 0-24 11-24 24l0 124c0 13 11 23 24 23z m-191-224c14 0 27-11 27-26 0-14-13-26-27-26-15 0-27 12-27 26 0 15 12 26 27 26z m172 0c15 0 27-11 27-26 0-14-12-26-27-26-14 0-27 12-27 26 0 15 13 26 27 26z"/>
<glyph glyph-name="st-calendar" unicode="&#57370;" d="M69 91l374 0 0 288-374 0z m390 336c18 0 32-14 32-32l0-321c0-17-14-31-32-31l-406 0c-18 0-32 14-32 31l0 321c0 18 14 32 32 32l75 0 0 10c0 18 14 32 32 32 18 0 32-14 32-32l0-10 128 0 0 10c0 18 14 32 32 32 18 0 32-14 32-32l0-10z m-331-171l0 64 64 0 0-64z m96 0l0 64 64 0 0-64z m96 0l0 64 64 0 0-64z m-192-107l0 64 64 0 0-64z m96 0l0 64 64 0 0-64z m96 0l0 64 64 0 0-64z"/>
<glyph glyph-name="st-camera" unicode="&#57371;" d="M69 110l374 0 0 235-111 0-23 57-106 0-23-57-111 0z m383-46l-392 0c-21 0-39 17-39 37l0 253c0 21 18 38 39 38l88 0 13 32c5 14 20 24 36 24l123 0c13 0 25-8 29-19l15-37 88 0c21 0 39-17 39-38l0-253c0-20-18-37-39-37z m-196 224c-29 0-53-23-53-51 0-29 24-52 53-52 29 0 53 23 53 52 0 28-24 51-53 51z m0-144c-52 0-95 42-95 93 0 51 43 93 95 93 52 0 95-42 95-93 0-51-43-93-95-93z"/>
<glyph glyph-name="st-castle" unicode="&#57372;" d="M464 49l0 268-19 30-19-28 0-102-340 0 0 102-19 28-19-30 0-268 125 0 0 42c0 47 38 86 85 86 47 0 85-39 85-86l0-42z m-267 309l0-92 38 0 0 37c0 13 10 23 23 23 12 0 23-10 23-23l0-37 34 0 0 96-59 72z m250 79l65-106 0-331-218 0 0 91c0 20-16 36-36 36-20 0-36-16-36-36l0-91-222 0 0 331 65 106 69-103 0-68 14 0 0 109 107 137 108-132 0-114 15 0 0 68z m-360-346l0 66 44 0 0-66z m296 0l0 66 45 0 0-66z"/>
<glyph glyph-name="st-change-password" unicode="&#57373;" d="M334 193l0 44c0 16-13 29-29 29l-100 0c-16 0-29-13-29-29l0-44c0-15 13-28 29-28l100 0c16 0 29 13 29 28z m-79 152c-18 0-33-15-33-33l66 0c0 18-15 33-33 33z m0 46c44 0 80-35 80-79l0-6c26-12 45-38 45-69l0-44c0-41-34-75-75-75l-100 0c-42 0-75 34-75 75l0 44c0 31 19 57 45 69l0 6c0 44 36 79 80 79z m10-170c7-3 13-11 13-20 0-12-11-22-23-22-13 0-23 10-23 22 0 9 6 17 13 20 0 1 0 2 0 3l0 17c0 6 4 10 10 10 6 0 10-4 10-10l0-17c0-1 0-2 0-3z m203 58c12 0 23-10 23-23 0-129-106-235-235-235-129 0-235 106-235 235 0 129 106 235 235 235 52 0 101-17 141-48l22 22c6 5 13 7 21 5 7-2 12-8 14-15l20-93c2-7 0-14-5-19-4-4-9-6-15-6-1 0-3 0-4 1l-93 20c-7 2-13 7-15 15-2 7 0 15 5 20l17 17c-31 22-69 34-108 34-104 0-188-84-188-188 0-104 84-188 188-188 104 0 188 84 188 188 0 13 11 23 24 23z"/>
<glyph glyph-name="st-clear" unicode="&#57374;" d="M480 256c0-124-100-224-224-224-124 0-224 100-224 224 0 124 100 224 224 224 124 0 224-100 224-224z m-179 91l-45-46-45 46c-13 12-33 12-46 0-12-13-12-33 0-46l46-45-46-45c-12-13-12-33 0-46 13-12 33-12 46 0l45 46 45-46c13-12 33-12 46 0 12 13 12 33 0 46l-46 45 46 45c12 13 12 33 0 46-13 12-33 12-46 0z"/>
<glyph glyph-name="st-clock" unicode="&#57375;" d="M256 491c130 0 235-105 235-235 0-130-105-235-235-235-130 0-235 105-235 235 0 130 105 235 235 235z m0-48c-103 0-187-84-187-187 0-103 84-187 187-187 103 0 187 84 187 187 0 103-84 187-187 187z m40-258c-6 0-11 2-16 6l-50 43c-6 4-9 11-9 18l0 115c0 13 11 24 24 24 13 0 24-11 24-24l0-104 42-35c10-9 11-24 3-34-5-6-12-9-18-9z"/>
<glyph glyph-name="st-close" unicode="&#57376;" d="M297 256l143 143c11 11 11 29 0 41-12 11-30 11-41 0l-143-143-143 143c-11 11-29 11-41 0-11-12-11-30 0-41l143-143-143-143c-11-11-11-29 0-41 6-5 13-8 21-8 7 0 15 3 20 8l143 143 143-143c5-5 13-8 20-8 8 0 15 3 21 8 11 12 11 30 0 41z"/>
<glyph glyph-name="st-company" unicode="&#57377;" d="M443 69l0 355c0 10-9 19-19 19l-336 0c-10 0-19-9-19-19l0-355 100 0 0 82c0 24 20 44 45 44l84 0c25 0 45-20 45-44l0-82z m-227 0l80 0 0 79-80 0z m208 422c37 0 67-30 67-67l0-403-470 0 0 403c0 37 30 67 67 67z m-310-151l0 64 63 0 0-64z m110 0l0 64 64 0 0-64z m111 0l0 64 63 0 0-64z m-221-105l0 63 63 0 0-63z m221 0l0 63 63 0 0-63z"/>
<glyph glyph-name="st-copy" unicode="&#57378;" d="M351 73c13 0 24-12 24-26 0-14-11-26-24-26l-190 0c-65 0-118 58-118 128l0 256c0 14 10 26 23 26 13 0 24-12 24-26l0-256c0-42 32-76 71-76z m118 251l0-145c0-40-32-72-73-72l-195 0c-40 0-73 32-73 72l0 240c0 39 33 72 73 72l99 0 8-3 2 0c3-1 5-3 7-5l146-144c2-2 4-4 5-6l0-2c1-3 1-5 1-7z m-146 85l0-38c0-14 11-24 24-24l39 0z m98-230l0 120-74 0c-40 0-73 32-73 72l0 72-73 0c-13 0-24-11-24-24l0-240c0-14 11-24 24-24l195 0c14 0 25 10 25 24z"/>
<glyph glyph-name="st-correct" unicode="&#57379;" d="M149 75c-7 0-13 3-18 8l-81 84c-10 11-10 28 0 39 10 10 27 10 37 0l62-66 276 289c10 11 27 11 37 0 10-10 10-27 0-38l-294-308c-5-5-12-8-19-8"/>
<glyph glyph-name="st-culture" unicode="&#57380;" d="M64 159c2-12 19-97 110-97 88 0 107 84 109 97l0 173c-21 5-63 14-106 14-55 0-94-8-113-13z m110-140c-107 0-146 88-152 135-1 1-1 2-1 3l0 191c0 9 6 17 14 20 2 1 52 21 142 21 68 0 131-19 134-20 9-3 15-11 15-21l0-191c0-1 0-2 0-3-8-47-49-135-152-135z m-30 203c-11 0-20 9-20 21 0 3-3 6-7 6-4 0-8-3-8-6 0-12-9-21-20-21-11 0-20 9-20 21 0 26 21 47 48 47 26 0 48-21 48-47 0-12-9-21-21-21z m111 0c-11 0-20 9-20 21 0 3-4 6-8 6-4 0-7-3-7-6 0-12-9-21-20-21-12 0-21 9-21 21 0 26 22 47 48 47 27 0 49-21 49-47 0-12-10-21-21-21z m-80-123c-42 0-76 34-76 75 0 11 9 20 21 20 11 0 20-9 20-20 0-19 16-34 35-34 19 0 35 15 35 34 0 11 9 20 21 20 11 0 20-9 20-20 0-41-34-75-76-75z m299 372c9-3 15-11 15-20l0-191c0-2 0-3 0-4-7-46-48-134-151-135 4 16 6 35 7 44 81 5 99 84 101 96l0 173c-21 6-63 15-105 15-56 0-95-9-114-14l0-30c-14 2-30 3-42 4l0 42c0 8 5 16 13 20 2 0 52 21 143 21 67 0 130-20 133-21z m-111-146c-11 0-20 9-20 20 0 26 21 48 48 48 26 0 48-22 48-48 0-11-9-20-21-20-11 0-20 9-20 20 0 4-3 7-7 7-4 0-8-3-8-7 0-11-9-20-20-20z m51-49c0-39-30-70-69-74l0 41c16 3 28 17 28 33 0 11 10 20 21 20 11 0 20-9 20-20z"/>
<glyph glyph-name="st-day-night" unicode="&#57381;" d="M20 302c-13 3-22 15-20 28 3 14 15 22 29 20l13-2c13-3 22-15 20-29-2-11-12-20-24-20-1 0-3 1-4 1z m45 117l-10 9c-9 10-9 25 0 35 10 9 25 9 35 0l10-10c9-10 9-25-1-34-4-5-10-8-17-8-6 0-12 3-17 8z m-3-204c2-14-7-26-20-29l-13-2c-2 0-3 0-5 0-11 0-22 8-24 20-2 13 7 26 20 28l14 2c13 3 26-6 28-19z m235 235c-13 2-22 15-19 28l2 14c2 13 15 22 28 20 13-3 22-15 20-29l-2-13c-3-12-13-20-24-20-2 0-3 0-5 0z m-109 0c-11 0-22 8-24 20l-2 13c-2 14 6 26 20 29 13 2 25-7 28-20l2-14c3-13-6-26-20-28-1 0-2 0-4 0z m65-319c16 64 65 116 128 134-2 22-9 42-21 60l-173-173c19-13 42-21 66-21z m-122 124c0-25 8-49 22-69l173 173c-20 13-44 21-69 21-69 0-126-56-126-125z m166-168c0 0 0 0 0 0-13-3-27-5-40-5-3 0-6 0-9 0-36 2-69 15-96 35l-64-65c-5-5-11-7-18-7-6 0-12 2-17 7-9 10-9 25 0 34l65 65c-22 29-35 65-35 104 0 96 78 174 174 174 39 0 75-13 104-35l65 65c9 9 24 9 34 0 9-10 9-25 0-35l-65-64c19-25 31-55 34-87 1-6 1-12 1-18 0-10-1-21-3-31-19-1-38-6-54-14-29-15-52-39-65-68-7-17-11-36-11-55z m140 22l36-5-26-24 6-34-32 17-33-17 7 34-27 24 37 5 16 31z m75 90l-17-15 4-22-20 10-21-10 4 22-16 15 23 3 10 19 10-19z m-195-159l23-3-17-15 4-22-20 10-21-10 4 22-16 15 23 3 10 19z"/>
<glyph glyph-name="st-detail" unicode="&#57382;" d="M111 69l290 0 0 269-94 0c-13 0-23 10-23 23l0 82-173 0z m268 316l-48 46 0-46z m62 6c4-4 7-11 7-17l0-308c0-24-20-45-45-45l-294 0c-25 0-45 21-45 45l0 380c0 24 20 45 45 45l219 0c7 0 12-3 17-7z m-122-111c13 0 24-11 24-24 0-13-11-24-24-24l-126 0c-13 0-24 11-24 24 0 13 11 24 24 24z m0-85c13 0 24-10 24-23 0-13-11-24-24-24l-126 0c-13 0-24 11-24 24 0 13 11 23 24 23z"/>
<glyph glyph-name="st-down" unicode="&#57383;" d="M461 261c-11 10-28 10-39 0l-138-130 0 312c0 15-13 26-28 26-15 0-28-11-28-26l0-312-138 130c-11 10-28 10-39 0-5-5-8-11-8-18 0-7 3-14 8-19l185-174c6-5 13-7 20-7 7 0 14 2 20 7l185 174c5 5 8 12 8 19 0 7-3 13-8 18"/>
<glyph glyph-name="st-down-circle" unicode="&#57384;" d="M480 256c0-124-100-224-224-224-124 0-224 100-224 224 0 124 100 224 224 224 124 0 224-100 224-224z m-105 9c12 13 12 33 0 46-13 12-33 12-46 0l-68-68-67 68c-13 12-33 12-46 0-12-13-12-33 0-46l91-90c12-13 33-13 45 0z"/>
<glyph glyph-name="st-edit" unicode="&#57385;" d="M266 224l112 114-19 19-19 20-113-114-4-42z m162 203c-10 11-28 11-38 0l-12-11 20-20 19-19 11 11c11 11 11 29 0 39z m39 39c32-32 32-84 0-117l0 0-31-31-138-140c-5-5-11-8-18-8l-86-7c0 0-1 0-2 0-7 0-14 3-19 8-6 6-9 14-8 23l9 84c1 6 4 12 8 17l139 140 30 31c32 33 84 33 116 0z m-48-225c15 0 27-12 27-27l0-137c0-31-25-56-55-56l-314 0c-31 0-56 25-56 56l0 296c0 30 25 56 56 56l124 0c15 0 27-13 27-28 0-15-12-28-27-28l-124 0-1-296 315 0 0 137c0 15 13 27 28 27z"/>
<glyph glyph-name="st-email" unicode="&#57386;" d="M443 123c0-6-5-11-12-11l-350 0c-7 0-12 5-12 11l0 198 141-103c14-10 30-15 46-15 16 0 32 5 46 15l141 103z m-374 266c0 6 5 11 12 11l350 0c7 0 12-5 12-11l0-9-169-123c-5-4-12-6-18-6-6 0-13 2-18 6l-169 123z m417 23c-9 21-30 36-55 36l-350 0c-25 0-46-15-55-36-3-7-5-15-5-23l0-266c0-32 27-59 60-59l350 0c33 0 60 27 60 59l0 266c0 8-2 16-5 23z"/>
<glyph glyph-name="st-error" unicode="&#57387;" d="M480 256c0-124-100-224-224-224-124 0-224 100-224 224 0 124 100 224 224 224 124 0 224-100 224-224z m-224-64c-18 0-32-14-32-32 0-18 14-32 32-32 18 0 32 14 32 32 0 18-14 32-32 32z m0 32c18 0 32 14 32 32l0 96c0 18-14 32-32 32-18 0-32-14-32-32l0-96c0-18 14-32 32-32z"/>
<glyph glyph-name="st-expand" unicode="&#57388;" d="M397 299c-7 0-15 2-21 8l-120 115-120-115c-12-11-31-11-42 0-12 11-12 29 0 40l141 135c12 11 30 11 42 0l141-135c12-11 12-29 0-40-6-6-13-8-21-8z m-141-278c-7 0-14 3-19 8l-144 139c-10 10-10 27 0 38 11 10 29 10 39 0l124-120 124 120c10 10 28 10 39 0 10-11 10-28 0-38l-144-139c-5-5-12-8-19-8z"/>
<glyph glyph-name="st-facebook" unicode="&#57389;" d="M357 256l-60 0 0-224-82 0 0 224-55 0 0 77 55 0 0 46c0 63 17 101 89 101l61 0 0-77-38 0c-28 0-30-11-30-31l0-39 68 0z"/>
<glyph glyph-name="st-fastival" unicode="&#57390;" d="M320 49l75 0-18 36z m-72 414c-13 0-23-10-23-22 0-12 10-22 23-22 12 0 22 10 22 22 0 12-10 22-22 22z m-46-212l69 44-23 45z m-43-86l-36-72 189 121-19 37z m70-116c1 0 1 0 1 0l124 80-20 41-190-121z m54 330l174-344c3-7 3-16-1-23-5-8-13-12-21-12l-375 0c-8 0-16 4-20 12-5 7-5 16-1 23l173 344c-21 13-36 36-36 62 0 39 32 71 72 71 39 0 71-32 71-71 0-26-15-49-36-62z m-218-28l5 31-23 22 32 5 14 28 14-28 32-5-23-22 6-31-29 15z m412-98l-23-22 6-32-29 15-28-15 5 32-22 22 31 4 14 29 14-29z m-72 117c-14 0-25 11-25 24 0 13 11 24 25 24 13 0 24-11 24-24 0-13-11-24-24-24z m-346-152c-13 0-24 11-24 25 0 13 11 24 24 24 14 0 25-11 25-24 0-14-11-25-25-25z"/>
<glyph glyph-name="st-favorite-fill" unicode="&#57391;" d="M446 440c-49 44-124 38-172-13l-18-20-18 20c-47 51-123 57-172 13-27-24-43-58-45-94-1-38 12-76 36-102l179-192 0 0c7-8 15-9 20-9 5 0 13 1 21 9l178 192c24 26 37 64 36 102-2 36-18 70-45 94"/>
<glyph glyph-name="st-favorite-stoke" unicode="&#57392;" d="M144 422c-17 0-33-6-47-18-22-20-28-44-29-61-1-25 8-50 24-67l164-177 165 177c15 17 24 42 23 67-1 17-7 41-29 62-30 26-77 22-106-10l-53-57-53 57c-16 18-38 27-59 27m112-379c-5 0-13 1-20 9l0 0-179 192c-24 26-37 64-36 102 2 36 18 70 45 94 49 44 125 38 172-13l18-20 18 20c48 51 123 57 172 13 27-24 43-58 45-94 1-38-12-76-36-102l-178-192c-8-8-16-9-21-9"/>
<glyph glyph-name="st-fier" unicode="&#57393;" d="M258 129c-47 0-86 36-86 95 0 30 16 56 48 101 5-7 65-96 65-96l38 51c3-5 6-11 8-16 18-39 10-91-22-117-14-12-32-18-51-18z m-44 293c-62-68-99-148-102-193-3-44 9-83 35-113 27-29 67-46 109-46 38 0 73 15 101 44 29 31 45 72 44 116-2 52-24 101-70 151-8-9-16-18-24-28l-19-26-19 27c-15 23-34 46-55 68z m42-401c-55 0-107 23-143 63-36 39-53 91-48 148 5 69 61 171 133 242l16 17 17-17c21-21 41-44 59-67 8 9 16 18 24 26l17 17 16-17c67-66 99-130 101-202 1-57-19-111-58-151-36-38-83-59-134-59z"/>
<glyph glyph-name="st-filter" unicode="&#57394;" d="M166 373c18 0 32 15 32 32 0 18-14 32-32 32-18 0-32-14-32-32 0-17 14-32 32-32z m298 59c15 0 27-12 27-27 0-14-12-26-27-26l-217 0c-11-34-43-59-81-59-38 0-70 25-81 59l-37 0c-15 0-27 12-27 26 0 15 12 27 27 27l37 0c11 34 43 59 81 59 38 0 70-25 81-59z m-298-358c18 0 32 15 32 33 0 17-14 32-32 32-18 0-32-15-32-32 0-18 14-33 32-33z m298 59c15 0 27-12 27-26 0-15-12-27-27-27l-217 0c-11-34-43-59-81-59-38 0-70 25-81 59l-37 0c-15 0-27 12-27 27 0 14 12 26 27 26l37 0c11 34 43 59 81 59 38 0 70-25 81-59z m-118 91c18 0 32 14 32 32 0 18-14 32-32 32-18 0-32-14-32-32 0-18 14-32 32-32z m118 59c15 0 27-12 27-27 0-15-12-27-27-27l-37 0c-11-34-43-58-81-58-38 0-70 24-81 58l-217 0c-15 0-27 12-27 27 0 15 12 27 27 27l217 0c11 34 43 58 81 58 38 0 70-24 81-58z"/>
<glyph glyph-name="st-food" unicode="&#57395;" d="M177 278c22 13 35 39 35 68 0 17-6 54-10 81-1 4-4 15-18 15-1 0-2 0-4-1l0-96c0-9-7-16-16-16-8 0-16 7-16 16l0 95c-5 2-13 2-18-1l0 0 0-94c0-9-7-16-16-16-9 0-16 7-16 16l0 97c0 0-1 0-2 0-9 0-16-6-17-15-4-22-10-63-10-81 0-29 13-55 34-68l13-7-8-183c0-5 1-11 5-14 1-2 4-4 7-4l40 0c3 0 6 2 7 4 3 3 5 9 5 14l-7 183z m7 213c33 0 59-23 65-56 2-14 10-64 10-89 0-41-17-78-45-101l5-155c1-18-5-37-17-50-12-12-26-19-42-19l-40 0c-16 0-31 7-42 19-12 13-19 32-18 51l7 154c-29 23-46 60-46 101 0 25 8 75 11 90 5 32 32 55 64 55 8 0 15-2 22-4 14 5 30 5 44 0 7 2 15 4 22 4z m259-404l0 338c0 9-7 17-16 17-36 0-95-52-95-114 0-31 13-56 41-80l9-8-11-151c0-5 2-10 5-14 1-2 5-5 11-5l40 0c9 0 16 8 16 17z m-16 404c35 0 64-30 64-66l-1-338c0-36-28-66-63-66l-40 0c-17 0-34 8-46 21-12 14-19 32-17 51l9 126c-32 31-48 68-48 109 0 87 78 163 142 163z"/>
<glyph glyph-name="st-free-day" unicode="&#57396;" d="M313 384c0-28-24-50-52-50-29 0-52 22-52 50 0 27 23 49 52 49 28 0 52-22 52-49z m14-113l0-177c0-8-8-15-18-15l-7 0c-10 0-18 7-18 15l0 91-56 0-1-91c0-8-8-15-17-15l-8 0c-9 0-17 7-17 15l0 177-72 65c-4 4-9 11 1 22 3 4 8 7 14 7 4 0 9-1 12-4l72-65 90 0 70 63c6 6 16 9 26 0 5-4 7-8 7-12 0-3-2-6-4-8z m101 121c-20 19-47 24-71 16-12 43-53 72-101 72-48 0-85-28-97-72-25 8-55 2-75-16-27-26-27-68 0-94l52-49 0-150c0-37 31-67 70-67l7 0c16 0 31 5 43 14 12-9 27-14 43-14l7 0c39 0 70 30 70 67l0 150 52 49c27 26 27 68 0 94z"/>
<glyph glyph-name="st-hide" unicode="&#57397;" d="M397 21c-7 0-15 3-21 9l-120 115-120-115c-12-11-31-11-42 0-12 11-12 29 0 40l141 135c12 11 30 11 42 0l141-135c12-11 12-29 0-40-6-6-13-9-21-9z m-141 278c-7 0-14 2-19 7l-144 139c-10 11-10 27 0 38 11 10 29 10 39 0l124-120 124 120c10 10 28 10 39 0 10-11 10-27 0-38l-144-139c-5-5-12-7-19-7z"/>
<glyph glyph-name="st-highlight" unicode="&#57398;" d="M447 295l-93-94 22-134c0-1 0-2-2-3l-115 64-117-63c-1 0-1 1-1 2l22 134-93 94c-1 1-1 3 1 5l129 20 57 122 3 0 57-122 130-20 1-1c0-1 0-3-1-4m46 19c-6 18-21 31-39 33l-104 16-47 99c-8 18-25 29-44 29l0 0c-20 0-37-11-45-29l-47-99-103-16c-19-2-34-15-40-33-6-19-2-39 12-53l76-77-18-109c-3-20 4-39 21-50 8-6 18-9 28-9 8 0 16 2 23 6l93 51 92-51c17-9 37-8 52 3 16 11 24 31 21 50l-18 109 75 77c14 14 19 34 12 53"/>
<glyph glyph-name="st-home" unicode="&#57399;" d="M332 21c-15 0-27 13-27 28l0 103-98 0 0-103c0-15-12-28-27-28-15 0-28 13-28 28l0 131c0 15 13 27 28 27l152 0c15 0 28-12 28-27l0-131c0-15-13-28-28-28z m131 0c-15 0-27 13-27 28l0 206-182 171-178-171 0-206c0-15-12-28-27-28-15 0-28 13-28 28l0 218c0 7 3 14 9 20l205 196c10 10 27 10 38 0l209-196c6-5 9-13 9-20l0-218c0-15-13-28-28-28z"/>
<glyph glyph-name="st-hotel" unicode="&#57400;" d="M327 195l109 0 0 89c0 26-21 47-48 47l-61 0z m61 189c57 0 103-45 103-100l0-172c0-15-13-27-28-27-15 0-27 12-27 27l0 30-360 0 0-30c0-15-12-27-27-27-15 0-27 12-27 27l0 55c0 1-1 1-1 2 0 0 1 1 1 2l0 229c0 15 12 27 27 27 15 0 27-12 27-27l0-205 196 0 0 163c0 14 13 26 28 26z m-219-74c-9 0-17-7-17-16 0-8 8-16 17-16 9 0 16 8 16 16 0 9-7 16-16 16z m0-85c-39 0-71 31-71 69 0 38 32 69 71 69 39 0 71-31 71-69 0-38-32-69-71-69z"/>
<glyph glyph-name="st-info" unicode="&#57401;" d="M480 256c0-124-100-224-224-224-124 0-224 100-224 224 0 124 100 224 224 224 124 0 224-100 224-224z m-224 64c18 0 32 14 32 32 0 18-14 32-32 32-18 0-32-14-32-32 0-18 14-32 32-32z m0-32c-18 0-32-14-32-32l0-96c0-18 14-32 32-32 18 0 32 14 32 32l0 96c0 18-14 32-32 32z"/>
<glyph glyph-name="st-instagram" unicode="&#57402;" d="M463 133l0 246c0 47-37 84-84 84l-246 0c-47 0-84-37-84-84l0-246c0-47 37-84 84-84l246 0c47 0 84 37 84 84z m-84 379c74 0 133-59 133-133l0-246c0-74-59-133-133-133l-246 0c-74 0-133 59-133 133l0 246c0 74 59 133 133 133z m-122-348c50 0 91 41 91 91 0 51-41 92-91 92-51 0-92-41-92-92 0-50 41-91 92-91z m0 231c77 0 140-63 140-140 0-77-63-140-140-140-77 0-140 63-140 140 0 77 63 140 140 140z m138 34c16 0 29-13 29-29 0-16-13-29-29-29-16 0-29 13-29 29 0 16 13 29 29 29z"/>
<glyph glyph-name="st-instant-booking" unicode="&#57403;" d="M288 491l-116 0c-20 0-37-16-40-34l-46-195c-2-13 2-25 10-35 8-10 20-15 32-15l87 0-31-139c-3-13 0-26 8-36 8-10 19-16 32-16 14 0 28 8 34 20l163 254c8 13 8 29 0 42-7 13-20 21-35 21l-84 0 26 80c3 13 0 26-7 36-8 11-20 17-33 17m-7-47l-23-72-20-61 138 0-140-218 24 109 13 57-140 0 44 185 104 0"/>
<glyph glyph-name="st-label-map" unicode="&#57404;" d="M426 299l-150 0 0-32 163 0c12 0 22-14 22-30l0-100c0-17-10-30-22-30l-163 0 0-70c0-9-7-16-15-16l-10 0c-8 0-14 7-14 16l0 70-151 0c-8 0-15 4-21 11l-39 55c-6 7-6 20 0 28l39 54c6 7 13 12 21 12l151 0 0 32-164 0c-12 0-22 13-22 30l0 100c0 16 10 30 22 30l164 0 0 16c0 9 6 16 14 16l10 0c8 0 15-7 15-16l0-16 150 0c8 0 15-5 21-12l39-54c6-8 6-21 0-28l-39-55c-6-7-13-11-21-11z m-6-150l0 74-325 0-23-36 23-38z m-327 262l0-64 327 0 23 32-23 32z"/>
<glyph glyph-name="st-layout-column" unicode="&#57405;" d="M69 322l121 0 0 121-103 0c-10 0-18-8-18-18z m169-48l-217 0 0 151c0 36 30 66 66 66l151 0z m84 48l121 0 0 103c0 10-8 18-18 18l-103 0z m169-48l-217 0 0 217 151 0c36 0 66-30 66-66z m-422-84l0-103c0-10 8-18 18-18l103 0 0 121z m169-169l-151 0c-36 0-66 30-66 66l0 151 217 0z m84 48l103 0c10 0 18 8 18 18l0 103-121 0z m103-48l-151 0 0 217 217 0 0-151c0-36-30-66-66-66z"/>
<glyph glyph-name="st-layout-low" unicode="&#57406;" d="M69 322l374 0 0 103c0 10-8 18-18 18l-338 0c-10 0-18-8-18-18z m422-48l-470 0 0 151c0 36 30 66 66 66l338 0c36 0 66-30 66-66z m-422-84l0-103c0-10 8-18 18-18l338 0c10 0 18 8 18 18l0 103z m356-169l-338 0c-36 0-66 30-66 66l0 151 470 0 0-151c0-36-30-66-66-66z"/>
<glyph glyph-name="st-line" unicode="&#57407;" d="M478 268c-3-19-9-36-17-52-4-8-24-37-30-45-33-42-88-90-181-138-9-4-18 3-17 13l4 45c1 7-4 13-11 14-109 12-194 91-194 187 0 104 100 188 224 188 120 0 218-80 224-180 0-2 0-12 0-18 0-4-1-9-2-14z m-346-13l0 76c0 7-6 12-13 12-7 0-12-5-12-12l0-88c0-7 5-12 12-12l50 0c7 0 12 5 12 12 0 6-5 12-12 12z m77-24c5 0 10 4 10 9l0 94c0 5-5 9-10 9l-5 0c-6 0-10-4-10-9l0-94c0-5 4-9 10-9z m96 100l0-54c0 0-51 61-52 62-2 3-6 4-10 4-7 0-12-6-12-12l0-88c0-7 6-12 13-12 7 0 13 5 13 12l0 54c0 0 51-62 52-63 2-2 5-3 9-3 7 0 13 6 13 12l0 88c0 7-6 12-13 12-7 0-13-5-13-12z m113 0c0 7-6 12-13 12l-49 0c-7 0-13-5-13-12l0-88c0-7 6-12 13-12l49 0c7 0 13 5 13 12 0 6-6 12-13 12l-37 0 0 20 37 0c7 0 13 6 13 12 0 7-6 12-13 12l-37 0 0 21 37 0c7 0 13 5 13 11z"/>
<glyph glyph-name="st-login" unicode="&#57408;" d="M422 98l0 168c0 16-13 30-29 30l-274 0c-16 0-29-14-29-30l0-168c0-16 13-29 29-29l274 0c16 0 29 13 29 29z m-248 263l0-18 164 0 0 18c0 46-37 82-82 82-45 0-82-36-82-82z m219-18c42 0 76-34 76-77l0-168c0-42-34-77-76-77l-274 0c-42 0-76 35-76 77l0 168c0 43 34 77 76 77l8 0 0 18c0 72 58 130 129 130 71 0 129-58 129-130l0-18z m-115-157c12-7 20-20 20-35 0-24-19-43-42-43-23 0-42 19-42 43 0 15 8 28 20 35-1 2-2 4-2 7l0 42c0 13 11 24 24 24 13 0 24-11 24-24l0-42c0-3-1-5-2-7z"/>
<glyph glyph-name="st-logout" unicode="&#57409;" d="M422 98l0 168c0 16-13 30-29 30l-274 0c-16 0-29-14-29-30l0-168c0-16 13-29 29-29l274 0c16 0 29 13 29 29z m-29 245c42 0 76-34 76-77l0-168c0-42-34-77-76-77l-274 0c-42 0-76 35-76 77l0 168c0 43 34 77 76 77l8 0 0 18c0 72 58 130 129 130 56 0 104-37 122-87l-52 0c-15 23-40 39-70 39-45 0-82-36-82-82l0-18z m-115-157c12-7 20-20 20-35 0-24-19-43-42-43-23 0-42 19-42 43 0 15 8 28 20 35-1 2-2 4-2 7l0 42c0 13 11 24 24 24 13 0 24-11 24-24l0-42c0-3-1-5-2-7z"/>
<glyph glyph-name="st-mark-map" unicode="&#57410;" d="M254 443c-21 0-42-6-61-19-31-20-50-48-57-86-7-31-3-61 11-88 5-10 11-19 18-29l3-5c23-34 46-68 70-102l18-27 66 97c10 15 21 31 32 46 15 22 23 44 25 70 2 30-4 57-18 81-24 39-56 59-99 62-2 0-5 0-8 0z m2-422c-8 0-15 4-19 11l-38 55c-24 34-47 68-70 102l-3 5c-7 11-15 22-21 34-19 37-24 77-16 119 10 51 36 90 78 117 30 20 64 29 99 26 58-4 104-32 135-85 20-32 28-69 25-109-2-33-14-65-34-93-10-15-21-31-31-46l-85-125c-5-7-12-11-20-11z m0 246c-29 0-52 23-52 52 0 29 23 53 52 53 29 0 53-24 53-53 0-29-24-52-53-52z"/>
<glyph glyph-name="st-member" unicode="&#57411;" d="M256 440c-37 0-67-30-67-67 0-36 30-66 67-66 37 0 67 30 67 66 0 37-30 67-67 67z m0-184c-65 0-117 53-117 117 0 65 52 118 117 118 65 0 117-53 117-118 0-64-52-117-117-117z m187-235c-15 0-27 13-27 28l0 80c0 27-21 49-48 49l-224 0c-27 0-48-22-48-49l0-80c0-15-12-28-27-28-14 0-26 13-26 28l0 80c0 57 45 104 101 104l224 0c56 0 101-47 101-104l0-80c0-15-12-28-26-28z"/>
<glyph glyph-name="st-messenger" unicode="&#57412;" d="M281 193c47 49 93 97 139 146-1 0-1 1-1 1-41-23-82-45-123-68-23 23-45 46-67 70-46-49-92-98-137-146 0-1 0-1 1-1 41 22 82 45 123 67 22-23 44-46 65-69m-40 319l30 0c5-1 10-1 15-2 56-6 106-27 148-65 39-35 64-78 74-130 2-9 3-18 4-27l0-26c0-3-1-7-1-10-8-63-37-115-86-155-71-56-150-71-237-50-4 1-7 0-10-1-25-14-51-28-76-42-2-1-4-2-7-4l0 7c0 26 0 52 1 79 0 3-1 5-4 8-5 3-9 7-13 10-40 36-66 79-75 132-2 9-3 17-4 26l0 26c0 2 1 3 1 5 3 34 13 67 31 96 43 69 106 107 185 120 8 1 16 2 24 3"/>
<glyph glyph-name="st-money" unicode="&#57413;" d="M392 80c12 17-1 58-8 73l-84 164-88 0-84-164c-8-16-20-56-8-73 4-7 15-10 30-10l212 0c15 0 26 3 30 10z m-191 345c-7 0-14-6-20-12l29-48 92 0 40 73c-10 4-25 5-33 3-6-2-26-17-42-32-5-5-12-7-19-7-8 0-14 3-19 9-3 4-17 15-28 14z m229-251c4-8 35-77 5-120-10-15-31-33-73-33l-212 0c-42 0-63 18-73 33-30 43 1 112 5 119l85 167-39 63c-4 8-4 17 1 25 2 4 28 42 67 45 22 2 40-6 52-14 15 12 33 25 48 29 28 7 80 2 100-34 4-7 4-16 0-23l-51-92z m-134 31l0 8c0 8-7 14-16 14l-17 0 0-36 17 0c9 0 16 6 16 14z m0-55l0 8c0 7-7 13-16 13l-17 0 0-35 17 0c9 0 16 6 16 14z m-80 41l23 0 0 36-23 0z m0-55l23 0 0 35-23 0z m64 111c22 0 40-15 40-34l0-8c0-9-4-18-12-24 8-6 12-14 12-23l0-8c0-19-18-34-40-34l-17 0 0-10c0-6-5-10-12-10-6 0-12 4-12 10l0 10-35 0c-7 0-12 4-12 10l0 111c0 5 5 10 12 10l35 0 0 10c0 5 6 10 12 10 7 0 12-5 12-10l0-10z"/>
<glyph glyph-name="st-more-horizontal" unicode="&#57414;" d="M128 213c-24 0-43 19-43 43 0 24 19 43 43 43 24 0 43-19 43-43 0-24-19-43-43-43z m128 0c-24 0-43 19-43 43 0 24 19 43 43 43 24 0 43-19 43-43 0-24-19-43-43-43z m128 0c-24 0-43 19-43 43 0 24 19 43 43 43 24 0 43-19 43-43 0-24-19-43-43-43z"/>
<glyph glyph-name="st-move" unicode="&#57415;" d="M500 256c0-135-109-244-244-244-135 0-244 109-244 244 0 135 109 244 244 244 135 0 244-109 244-244z m-104 0c0 19-16 35-35 35l-210 0c-19 0-35-16-35-35 0-19 16-35 35-35l210 0c19 0 35 16 35 35z"/>
<glyph glyph-name="st-mybooking" unicode="&#57416;" d="M465 364l-220 0c-17 0-32 14-32 31 0 18 15 32 32 32l220 0c18 0 33-14 33-32 0-17-15-31-33-31z m0-160l-220 0c-17 0-32 14-32 31 0 18 15 32 32 32l220 0c18 0 33-14 33-32 0-17-15-31-33-31z m-337 31c0-24-19-43-43-43-23 0-42 19-42 43 0 23 19 42 42 42 24 0 43-19 43-42z m337-202l-220 0c-17 0-32 14-32 32 0 17 15 31 32 31l220 0c18 0 33-14 33-31 0-18-15-32-33-32z m-337 31c0-24-19-43-43-43-23 0-42 19-42 43 0 24 19 43 42 43 24 0 43-19 43-43z m-42 290c-8 0-15 3-21 8l-33 29c-13 12-14 31-2 44 11 13 32 14 45 3l9-8 46 50c12 13 32 14 46 3 13-12 14-32 2-45l-68-74c-5-6-13-10-22-10-1 0-1 0-2 0z"/>
<glyph glyph-name="st-next" unicode="&#57417;" d="M251 461c-10-11-10-28 0-39l130-138-312 0c-15 0-26-13-26-28 0-15 11-28 26-28l312 0-130-138c-10-11-10-28 0-39 5-5 11-8 18-8 7 0 14 3 19 8l174 185c5 6 7 13 7 20 0 7-2 14-7 20l-174 185c-5 5-12 8-19 8-7 0-13-3-18-8"/>
<glyph glyph-name="st-next-circle" unicode="&#57418;" d="M480 256c0-124-100-224-224-224-124 0-224 100-224 224 0 124 100 224 224 224 124 0 224-100 224-224z m-228 113c-12 13-33 13-45 0-13-12-13-33 0-45l68-68-68-68c-13-12-13-33 0-45 12-13 33-13 45 0l91 90c12 13 12 33 0 46z"/>
<glyph glyph-name="st-notification" unicode="&#57419;" d="M106 140l15 14c5 4 8 11 8 17l0 151c0 67 57 123 127 123 70 0 127-56 127-123l0-151c0-6 3-13 8-17l15-14z m150-73c-15 0-28 12-28 27l56 0c0-15-13-27-28-27z m227 67l-53 47 0 141c0 93-78 169-174 169-96 0-174-76-174-169l0-141-53-47c-7-7-10-17-6-25 4-9 12-15 22-15l135 0c1-40 35-73 76-73 41 0 75 33 76 73l135 0c10 0 18 6 22 15 4 8 1 18-6 25z"/>
<glyph glyph-name="st-object" unicode="&#57420;" d="M281 114c60 10 107 57 117 117l-12 0c-14 0-25 11-25 25 0 14 11 25 25 25l12 0c-10 60-57 107-117 117l0-12c0-14-11-25-25-25-14 0-25 11-25 25l0 12c-60-10-107-57-117-117l12 0c14 0 25-11 25-25 0-14-11-25-25-25l-12 0c10-60 57-107 117-117l0 12c0 14 11 25 25 25 14 0 25-11 25-25z m185 167c13 0 25-11 25-25 0-14-12-25-25-25l-17 0c-11-87-81-157-168-168l0-17c0-14-11-25-25-25-14 0-25 11-25 25l0 17c-87 11-157 81-168 168l-17 0c-13 0-25 11-25 25 0 14 12 25 25 25l17 0c11 87 81 157 168 168l0 17c0 13 11 25 25 25 14 0 25-12 25-25l0-17c87-11 157-81 168-168z m-167-25c0-24-19-43-43-43-24 0-43 19-43 43 0 24 19 43 43 43 24 0 43-19 43-43z"/>
<glyph glyph-name="st-passport" unicode="&#57421;" d="M309 164c13 0 24-11 24-24 0-13-11-24-24-24l-106 0c-13 0-24 11-24 24 0 13 11 24 24 24z m-23 73c20 9 35 28 38 51l-26 0c-1-16-5-33-12-51z m-98 51c4-24 19-44 41-53-8 19-11 36-13 53z m37 71c-19-9-34-28-37-50l28 0c1 20 5 37 9 50z m39 7c-3 0-5 1-8 1-2 0-3-1-5-1-5-10-13-30-14-57l40 0c-1 26-9 47-13 57z m-8-136c1 0 3 0 4 0 10 21 15 40 17 58l-39 0c1-18 6-38 17-58 0 0 1 0 1 0z m68 79c-3 21-16 39-34 49 4-13 8-30 9-49z m-68 89c56 0 101-45 101-100 0-55-45-100-101-100-56 0-101 45-101 100 0 55 45 100 101 100z m144-304l0 324c0 14-11 25-25 25l-238 0c-14 0-25-11-25-25l0-324c0-14 11-25 25-25l238 0c14 0 25 11 25 25z m-25 397c40 0 73-33 73-73l0-324c0-40-33-73-73-73l-238 0c-40 0-73 33-73 73l0 324c0 40 33 73 73 73z"/>
<glyph glyph-name="st-password" unicode="&#57422;" d="M95 357c-14 0-26-11-26-25l0-136c0-14 12-25 26-25l328 0c14 0 25 11 25 25l0 136c0 14-11 25-25 25z m328-234l-328 0c-41 0-74 33-74 73l0 136c0 40 33 73 74 73l328 0c40 0 73-33 73-73l0-136c0-40-33-73-73-73z m-250 150c5 0 9-4 9-9 0-5-4-9-9-9l-15 0 10-11c4-4 4-10 0-13-3-4-9-4-13 0l-11 10 0-15c0-5-4-9-9-9-5 0-9 4-9 9l0 15-11-10c-4-4-10-4-13 0-4 3-4 9 0 13l10 11-15 0c-5 0-9 4-9 9 0 5 4 9 9 9l15 0-10 11c-4 4-4 10 0 13 3 4 9 4 13 0l11-10 0 15c0 5 4 9 9 9 5 0 9-4 9-9l0-15 11 10c4 4 10 4 13 0 4-3 4-9 0-13l-10-11z m123 0c6 0 10-4 10-9 0-5-4-9-10-9l-15 0 11-11c4-4 4-10 0-13-4-4-10-4-13 0l-11 10 0-15c0-5-4-9-9-9-5 0-10 4-10 9l0 15-10-10c-4-4-10-4-14 0-3 3-3 9 0 13l11 11-15 0c-5 0-9 4-9 9 0 5 4 9 9 9l15 0-11 11c-3 4-3 10 0 13 4 4 10 4 14 0l10-10 0 15c0 5 5 9 10 9 5 0 9-4 9-9l0-15 11 10c3 4 9 4 13 0 4-3 4-9 0-13l-11-11z m124 0c5 0 9-4 9-9 0-5-4-9-9-9l-15 0 11-11c3-4 3-10 0-13-4-4-10-4-14 0l-10 10 0-15c0-5-5-9-10-9-5 0-9 4-9 9l0 15-11-10c-3-4-9-4-13 0-4 3-4 9 0 13l11 11-15 0c-6 0-10 4-10 9 0 5 4 9 10 9l15 0-11 11c-4 4-4 10 0 13 4 4 10 4 13 0l11-10 0 15c0 5 4 9 9 9 5 0 10-4 10-9l0-15 10 10c4 4 10 4 14 0 3-3 3-9 0-13l-11-11z"/>
<glyph glyph-name="st-pdf" unicode="&#57423;" d="M111 69l290 0 0 269-94 0c-13 0-23 10-23 23l0 82-173 0z m268 316l-48 46 0-46z m62 6c4-4 7-11 7-17l0-308c0-24-20-45-45-45l-294 0c-25 0-45 21-45 45l0 380c0 24 20 45 45 45l219 0c7 0 12-3 17-7z m-80-192c3 2-3 11-41 8 35-14 41-8 41-8z m-143-5c17 6 37 15 59 20-12 8-23 21-32 36-7-18-16-39-27-56z m26 141c-2 0-2-28 2-42 6 9 6 42-2 42z m-88-197c0-1 12 5 33 36-6-6-27-22-33-36z m143 87c18 2 54 6 67-7 11-11 8-40-18-40-16 0-39 7-58 18-22-4-48-14-71-21-52-90-82-49-78-33 4 21 32 38 52 48 11 19 27 53 37 77-8 30-12 53-7 70 5 18 39 21 44-6 5-16-2-42-6-58 8-22 20-37 38-48z"/>
<glyph glyph-name="st-people" unicode="&#57424;" d="M189 416c-28 0-50-22-50-49 0-28 22-50 50-50 27 0 50 22 50 50 0 27-23 49-50 49z m0-152c-57 0-104 46-104 103 0 56 47 102 104 102 57 0 103-46 103-102 0-57-46-103-103-103z m136-221c-14 0-26 12-26 26l0 86c0 20-16 36-36 36l-152 0c-20 0-36-16-36-36l0-86c0-14-12-26-27-26-15 0-27 12-27 26l0 86c0 49 40 89 90 89l152 0c49 0 89-40 89-89l0-86c0-14-12-26-27-26z m54 307c-15 0-27-12-27-26 0-15 12-26 27-26 14 0 26 11 26 26 0 14-12 26-26 26z m0-105c-44 0-80 35-80 79 0 44 36 79 80 79 44 0 80-35 80-79 0-44-36-79-80-79z m85-181c-15 0-27 12-27 26l0 67c0 9-7 16-16 16l-32 0c-14 0-26 12-26 27 0 14 12 26 26 26l32 0c38 0 70-31 70-69l0-67c0-14-12-26-27-26z"/>
<glyph glyph-name="st-phone" unicode="&#57425;" d="M160 443c-1 0-2 0-3 0l-77-18c-7-1-11-7-11-14 0-91 35-177 100-242 65-65 151-100 242-100 7 0 12 4 14 11l18 77c1 7-2 14-8 16l-84 36c-6 2-12 1-16-4l-27-33c-7-9-20-11-30-6-47 26-86 65-112 112-5 10-3 23 6 30l33 27c5 4 7 10 4 16l-36 84c-2 5-7 8-13 8m251-422c-104 0-202 41-276 115-73 73-114 171-114 275 0 29 20 54 48 60l78 18c29 7 58-8 70-36l36-83c10-25 3-55-18-72l-17-14c17-26 40-49 66-66l14 17c17 21 47 28 72 18l83-36c28-12 43-41 36-70l-18-78c-6-28-31-48-60-48"/>
<glyph glyph-name="st-pin-map" unicode="&#57426;" d="M256 238c56 0 102 46 102 102 0 57-46 103-102 103-56 0-102-46-102-103 0-56 46-102 102-102z m149 102c0-74-54-136-125-148l0-147c0-13-11-24-24-24-13 0-24 11-24 24l0 147c-71 12-125 74-125 148 0 83 67 151 149 151 82 0 149-68 149-151z m-144 77c13 0 24-10 24-24 0-13-11-23-24-23-16 0-29-14-29-30 0-13-11-24-24-24-13 0-23 11-23 24 0 43 34 77 76 77z"/>
<glyph glyph-name="st-plane" unicode="&#57427;" d="M446 445c0 0 0 0 0 1-1 0-1 0-1 0-31 31-82 31-114 0-15-15-29-28-43-42-12 3-24 6-36 8-36 9-71 17-106 26-29 7-57-3-77-26-24-28-23-70 3-95 5-5 10-9 16-12l64-36 2-1c-4-4-9-9-13-13-1 0-2 0-3 0l-6 1-4 1c-27 4-44-2-63-21l-3-4c-25-25-26-63-2-87 4-4 9-8 14-11l8-4c10-6 20-12 30-18 6-10 12-20 18-30l4-8c3-5 7-10 11-14 24-24 62-23 87 2l4 3c19 19 25 36 21 63l-1 4-1 6 0 3c4 4 9 9 13 13l1-2 36-64c3-6 7-11 12-16 25-26 67-27 95-3 23 20 33 48 26 77-9 35-17 70-26 106-2 12-5 24-8 36 14 14 27 28 42 43 31 32 31 83 0 114m-35-36c11-12 10-30-2-43-20-21-38-39-58-59-2-3-3-4-2-7 13-55 26-111 39-166 3-11 0-19-9-26-8-7-20-7-26 0-2 1-3 2-4 4-18 33-36 66-54 98-4 9-9 18-14 27-1-1-1-1-2-1-26-26-50-49-76-75-1-1-2-4-2-5 2-11 3-21 5-32 2-16 3-13-9-26-6-5-12-6-16-2-1 1-2 3-3 4-9 14-17 29-25 43-1 2-3 4-4 6-2 1-4 3-6 4-14 8-29 16-43 25-1 1-3 2-4 3-4 4-3 10 2 16 13 12 10 11 26 9 11-2 21-3 32-5 1 0 4 1 5 2 26 26 49 50 75 76 0 1 0 1 1 2-9 5-18 10-27 14-32 18-65 36-98 54-2 1-3 2-4 4-7 6-7 18 0 26 7 9 15 12 26 9 55-13 111-26 166-39 3-1 4 0 7 2 20 20 38 38 59 58 13 12 32 13 43 2 0-1 0-1 1-1 0-1 0-1 1-1"/>
<glyph glyph-name="st-plane-fly" unicode="&#57428;" d="M180 405c-10 0-21-2-30-7l-21-12c-20-10-33-32-34-55 0-18 6-35 18-48-6 2-12 3-19 3-10 0-20-3-29-8l-10-5c-17-9-29-26-33-46-3-20 2-40 15-56l37-42c12-14 29-22 47-22l73 0c13 0 26 3 37 10l188 102c24 12 43 30 55 52 23 37 18 66 10 83-7 15-25 40-70 43-3 0-6 0-9 0-21 0-42-5-63-17l-37-20-102 41c-7 3-15 4-23 4m0-50c2 0 3-1 5-1l117-48 6-2 57 31c14 8 27 12 40 12 2 0 4 0 6-1 15-1 25-5 29-14l0 0c4-8 1-20-8-35-8-13-20-25-35-33l-189-103c-4-2-9-3-14-3l-73-1c-4 0-8 2-10 5l-37 43c-3 4-4 8-3 13 0 4 3 8 7 10l10 5c2 2 4 2 6 2 3 0 5 0 7-2l32-17 7-3 90 49-79 54c-4 2-7 8-7 13 1 5 4 10 8 12l21 12c2 1 5 2 7 2"/>
<glyph glyph-name="st-plane-take-off" unicode="&#57429;" d="M180 491c8 0 16-2 23-5l102-41 37 20c21 12 42 18 63 18 3 0 6 0 9-1 45-3 63-28 70-42 8-18 13-46-10-84-12-21-31-39-55-52l-188-102c-11-6-24-10-37-10l-73 0c-18 0-35 8-47 22l-37 43c-13 15-18 35-15 55 4 20 16 37 33 47l10 5c9 5 19 7 29 7 7 0 13-1 19-3-12 13-18 31-18 49 1 23 14 44 34 55l21 11c9 5 20 8 30 8z m0-51c-2 0-5-1-7-2l-21-11c-4-3-7-7-8-13 0-5 3-10 7-13l79-54-90-49-7 3-32 18c-2 1-4 2-7 2-2 0-4-1-6-2l-10-5c-4-2-6-6-7-11-1-5 0-9 3-13l37-42c2-3 6-5 10-5l73 0c5 0 10 1 14 4l189 102c15 8 27 20 35 34 9 14 12 26 8 35l0 0c-4 8-14 13-29 14-2 0-4 0-6 0-13 0-26-4-40-11l-57-31-6 2-117 47c-1 1-3 1-5 1z m221-419l-289 0c-15 0-27 11-27 24 0 14 12 24 27 24l289 0c14 0 26-10 26-24 0-13-12-24-26-24z"/>
<glyph glyph-name="st-plane-tax" unicode="&#57430;" d="M257 491l-2 0c-42 0-77-35-78-78 0-21 0-39 0-59-10-6-21-12-31-19-30-18-59-37-89-55-25-15-38-40-35-70 3-36 31-63 67-63 6 0 12 1 19 2l68 20 2 1c0-6 0-12 0-18-1-1-2-2-2-2l-5-4-3-2c-21-16-29-31-28-57l0-5c0-34 25-61 58-61 6 0 11 1 17 3l8 2c11 3 22 5 33 8 11-3 22-5 33-8l8-2c6-2 11-3 17-3 33 0 58 27 58 62l0 4c1 26-7 41-28 57l-3 2-5 4c0 0-1 1-2 2 0 6 0 12 0 18l2-1 68-20c7-1 13-2 19-2 36 0 64 27 67 63 3 30-10 55-35 70-30 18-59 37-89 55-10 7-21 13-31 19 0 20 0 38 0 59-1 43-36 78-78 78m0-50c15 0 28-12 28-29 1-28 1-53 1-81 0-3 1-5 3-6 47-29 94-58 141-87 9-5 12-13 11-24 0-10-8-18-18-18-1 0-3 0-5 1-35 10-69 20-104 30-9 3-19 5-28 8 0-1 0-1 0-2-1-35-1-67-1-103 0-2 1-4 2-5 8-6 16-12 24-18 14-10 12-7 12-24 0-8-3-12-9-12-2 0-3 0-5 0-15 4-31 8-47 13-2 0-4 0-6 0-2 0-4 0-6 0-16-5-32-9-47-13-2 0-3 0-5 0-6 0-9 4-9 12 0 17-2 14 11 24 9 6 17 12 25 18 1 1 2 3 2 5 0 36 0 68-1 103 0 1 0 1 0 2-9-3-19-5-28-8-35-10-69-20-104-30-2-1-4-1-5-1-10 0-18 8-18 18-1 11 2 19 11 24 47 29 94 58 141 87 2 1 3 3 3 6 0 28 0 53 1 81 0 17 13 29 28 29 0 0 1 0 1 0 0 0 1 0 1 0"/>
<glyph glyph-name="st-plus" unicode="&#57431;" d="M500 256c0-135-109-244-244-244-135 0-244 109-244 244 0 135 109 244 244 244 135 0 244-109 244-244z m-139 35l-70 0 0 70c0 19-16 35-35 35-19 0-35-16-35-35l0-70-70 0c-19 0-35-16-35-35 0-19 16-35 35-35l70 0 0-70c0-19 16-35 35-35 19 0 35 16 35 35l0 70 70 0c19 0 35 16 35 35 0 19-16 35-35 35z"/>
<glyph glyph-name="st-premium" unicode="&#57432;" d="M256 406c-24 0-43 19-43 42 0 24 19 43 43 43 23 0 43-19 43-43 0-23-20-42-43-42z m-149-43c0-23-19-42-43-42-24 0-43 19-43 42 0 24 19 43 43 43 24 0 43-19 43-43z m341 43c24 0 43-19 43-43 0-23-19-42-43-42-24 0-43 19-43 42 0 24 19 43 43 43z m-148-385l-87 0c-14 0-24 11-24 24 0 14 10 24 24 24l87 0c13 0 24-10 24-24 0-13-11-24-24-24z m-139 133l195 0 27 72-56-32c-6-3-13-4-19-2-7 2-12 7-15 14l-35 79-35-79c-3-6-8-11-14-13-7-2-14-1-20 2l-56 32z m212-48l-228 0c-10 0-19 6-22 16l-59 150c-3 9-1 20 7 27 8 6 19 7 28 2l91-51 47 105c3 8 12 14 22 14 9 0 18-6 22-15l46-105 89 52c9 5 20 4 28-2 7-7 10-17 7-27l-56-150c-3-9-12-16-22-16z"/>
<glyph glyph-name="st-process" unicode="&#57433;" d="M104 160c-11 0-21-4-28-12-8-7-12-17-12-28 0-11 4-21 12-28 7-8 17-12 28-12 11 0 20 4 28 12 8 7 12 17 12 28 0 11-4 21-12 28-8 8-17 12-28 12z m-18 85c0 12-4 22-12 30-9 9-19 13-31 13-12 0-22-4-30-13-9-8-13-18-13-30 0-12 4-22 13-31 8-8 18-12 30-12 12 0 22 4 31 12 8 9 12 19 12 31z m8 190c-14 0-25-5-35-14-9-10-14-21-14-35 0-14 5-25 14-35 10-10 21-14 35-14 14 0 25 4 35 14 10 10 14 21 14 35 0 14-4 25-14 35-10 9-21 14-35 14z m381-184c-3 3-7 5-11 5-4 0-8-2-11-5-3-3-5-7-5-11 0-4 2-8 5-11 3-3 7-5 11-5 4 0 8 2 11 5 3 3 5 7 5 11 0 4-2 8-5 11z m-81-104c-8 0-15-3-20-9-6-5-9-12-9-20 0-8 3-15 9-20 5-6 12-9 20-9 8 0 15 3 20 9 6 5 9 12 9 20 0 8-3 15-9 20-5 6-12 9-20 9z m-138-51c-9 0-16-3-23-9-6-7-9-14-9-23 0-9 3-16 9-23 7-6 14-9 23-9 9 0 16 3 23 9 6 7 9 14 9 23 0 9-3 16-9 23-7 6-14 9-23 9z m5 416c-15 0-27-5-38-15-10-11-15-23-15-38 0-14 5-27 15-37 11-10 23-16 38-16 14 0 27 6 37 16 10 10 16 23 16 37 0 15-6 27-16 38-10 10-23 15-37 15z"/>
<glyph glyph-name="st-process-white" unicode="&#57434;" d="M104 160c-11 0-21-4-28-12-8-7-12-17-12-28 0-11 4-21 12-28 7-8 17-12 28-12 11 0 20 4 28 12 8 7 12 17 12 28 0 11-4 21-12 28-8 8-17 12-28 12z m-18 85c0 12-4 22-12 30-9 9-19 13-31 13-12 0-22-4-30-13-9-8-13-18-13-30 0-12 4-22 13-31 8-8 18-12 30-12 12 0 22 4 31 12 8 9 12 19 12 31z m8 190c-14 0-25-5-35-14-9-10-14-21-14-35 0-14 5-25 14-35 10-10 21-14 35-14 14 0 25 4 35 14 10 10 14 21 14 35 0 14-4 25-14 35-10 9-21 14-35 14z m381-184c-3 3-7 5-11 5-4 0-8-2-11-5-3-3-5-7-5-11 0-4 2-8 5-11 3-3 7-5 11-5 4 0 8 2 11 5 3 3 5 7 5 11 0 4-2 8-5 11z m-81-104c-8 0-15-3-20-9-6-5-9-12-9-20 0-8 3-15 9-20 5-6 12-9 20-9 8 0 15 3 20 9 6 5 9 12 9 20 0 8-3 15-9 20-5 6-12 9-20 9z m-138-51c-9 0-16-3-23-9-6-7-9-14-9-23 0-9 3-16 9-23 7-6 14-9 23-9 9 0 16 3 23 9 6 7 9 14 9 23 0 9-3 16-9 23-7 6-14 9-23 9z m5 416c-15 0-27-5-38-15-10-11-15-23-15-38 0-14 5-27 15-37 11-10 23-16 38-16 14 0 27 6 37 16 10 10 16 23 16 37 0 15-6 27-16 38-10 10-23 15-37 15z"/>
<glyph glyph-name="st-question" unicode="&#57435;" d="M256 32c-124 0-224 100-224 224 0 124 100 224 224 224 124 0 224-100 224-224 0-124-100-224-224-224z m-30 245l0-69 48 0 3 37c19 4 34 14 46 28 11 15 17 32 17 50 0 24-8 44-24 59-16 16-36 23-60 23-24 0-45-7-60-23-16-16-24-35-24-59l50 0 0 5c0 10 3 19 9 27 7 8 15 12 25 12 23 0 35-14 35-42 0-13-6-25-16-35-10-10-22-15-35-15z m52-141c0 9-3 16-9 22-6 6-13 9-22 9-9 0-16-3-22-9-7-6-10-13-10-21 0-8 4-15 10-21 6-6 13-9 22-9 9 0 16 3 22 8 6 6 9 13 9 21z"/>
<glyph glyph-name="st-recommend" unicode="&#57436;" d="M100 117c11 0 21-10 21-22 0-12-10-22-21-22-12 0-22 10-22 22 0 12 10 22 22 22z m52 155l22 0c24 0 56 61 78 84 23 24 11 77 33 79 38 0 37-27 37-47 0-33-23-48-23-81l91 0c17 0 31-16 31-32 0-16-11-32-18-32 11-13 13-39-5-56 11-18 1-43-11-50 6-41-15-64-44-64l-31 0c-59 0-116 32-160 32z m-81-236l57 0c13 0 24 9 28 22 39-1 66-37 158-37l19 0c69 0 100 36 101 88 12 17 18 39 15 61 9 17 12 37 8 58 8 13 12 28 12 46 0 40-33 78-76 78l-32 0c4 12 7 26 7 43 0 66-33 96-84 96-55 0-52-87-64-100-20-21-44-61-61-76l-88 0c-16 0-28-13-28-30l0-220c0-16 12-29 28-29z"/>
<glyph glyph-name="st-remove" unicode="&#57437;" d="M395 224l-278 0c-17 0-32 14-32 32 0 18 15 32 32 32l278 0c17 0 32-14 32-32 0-18-15-32-32-32"/>
<glyph glyph-name="st-reward" unicode="&#57438;" d="M443 266l-84 0c-13 0-24-11-24-24 0-13 11-23 24-23l63 0 0-151-142 0-2 260-1 13c1 1 1 2 1 3l165 0z m-353-198l0 151 68 0c14 0 24 10 24 23 0 13-10 24-24 24l-89 0 0 78 161 0 0-16 2-260z m46 363c5 8 14 13 24 13 5 0 11-2 16-5 7-5 19-24 32-48l-65 0c-13 9-16 27-7 40z m198 8l0 0c5 3 11 5 16 5 2 0 4-1 6-1 7-1 14-6 18-12 5-6 6-14 5-22-2-7-6-13-12-18l-65 0c13 24 26 43 32 48z m133-48l-44 0c1 3 2 6 3 10 3 20-1 40-12 56-12 17-29 29-49 32-20 4-41 0-58-12-16-11-36-44-52-73-16 29-36 62-52 74-35 23-83 14-107-21-13-20-16-44-9-66l-42 0c-13 0-24-10-24-23l0-126c0-12 10-21 21-23l0-174c0-13 11-24 24-24l380 0c13 0 24 11 24 24l0 174c11 2 21 11 21 23l0 126c0 13-11 23-24 23z"/>
<glyph glyph-name="st-safety" unicode="&#57439;" d="M79 346c27-164 136-242 175-265 117 88 162 188 178 265-40 15-71 49-80 90l-193 0c-9-41-39-76-80-90z m177-325c-4 0-8 1-12 3-8 4-195 93-222 339-2 15 8 29 23 30 36 5 62 35 62 70 0 15 13 28 28 28l241 0c16 0 28-13 28-28 0-35 27-65 63-70 7 0 14-4 18-10 4-6 6-13 5-20-13-93-61-226-218-337-5-3-11-5-16-5z m77 308c9-9 9-23 0-31l-93-93c-8-8-22-8-31 0l-31 31c-8 9-8 22 0 31 9 8 23 8 31 0l16-16 77 78c9 8 23 8 31 0z"/>
<glyph glyph-name="st-save" unicode="&#57440;" d="M286 177c15 0 27 12 27 27 0 15-12 28-27 28l-13 0 0-55z m-87 0l25 0 0 55-25 0z m0 103l25 0 0 55-25 0z m87 55l-13 0 0-55 13 0c15 0 27 13 27 28 0 15-12 27-27 27z m0 49c42 0 76-34 76-76 0-20-8-38-21-52 13-14 21-32 21-52 0-42-34-76-76-76l-13 0 0-12c0-14-11-25-24-25-14 0-25 11-25 25l0 12-49 0c-14 0-25 11-25 25l0 206c0 14 11 25 25 25l49 0 0 12c0 14 11 25 25 25 13 0 24-11 24-25l0-12z m-30-335c114 0 207 93 207 207 0 114-93 207-207 207-114 0-207-93-207-207 0-114 93-207 207-207z m0 463c141 0 256-115 256-256 0-141-115-256-256-256-141 0-256 115-256 256 0 141 115 256 256 256z"/>
<glyph glyph-name="st-search" unicode="&#57441;" d="M209 170c-73 0-132 60-132 133 0 73 59 132 132 132 73 0 133-59 133-132 0-73-60-133-133-133m274-101l-122 121c0 0-1 0-1 1 23 31 37 70 37 112 0 104-84 188-188 188-104 0-188-84-188-188 0-104 84-188 188-188 42 0 81 14 112 37 1 0 1-1 1-1l122-122c5-5 12-8 19-8 7 0 14 3 20 8 10 11 10 29 0 40"/>
<glyph glyph-name="st-season" unicode="&#57442;" d="M488 221c-4 13-17 20-29 17l-84-22-71 40 71 40 84-22c2 0 4-1 6-1 10 0 20 7 23 18 3 12-4 25-17 28l-37 10 42 23c11 7 15 21 8 32-6 11-21 15-32 9l-42-24 10 36c3 13-4 25-17 29-13 3-26-4-29-17l-23-81-71-40 0 80 61 59c9 10 9 24 0 33-9 9-25 9-34 0l-27-26 0 47c0 13-11 23-24 23-13 0-24-10-24-23l0-47-27 26c-9 9-25 9-34 0-9-9-9-23 0-33l61-59 0-80-71 40-23 81c-3 13-16 20-29 17-13-4-20-16-17-29l10-36-42 24c-11 6-26 2-32-9-7-11-3-25 8-32l42-23-37-10c-13-3-20-16-17-28 3-11 13-18 23-18 2 0 4 1 6 1l84 22 71-40-71-40-84 22c-12 3-25-4-29-17-3-12 4-25 17-28l37-10-42-23c-11-7-15-21-8-32 4-7 12-12 20-12 5 0 9 1 12 3l42 24-10-36c-3-13 4-25 17-29 2 0 4 0 6 0 11 0 21 6 23 17l23 81 71 40 0-80-61-59c-9-10-9-24 0-33 9-9 25-9 34 0l27 26 0-47c0-13 11-23 24-23 13 0 24 10 24 23l0 47 27-26c5-5 11-7 17-7 6 0 12 2 17 7 9 9 9 23 0 33l-61 59 0 80 71-40 23-81c2-11 12-17 23-17 2 0 4 0 6 0 13 4 20 16 17 29l-10 36 42-24c3-2 8-3 12-3 8 0 16 5 20 12 7 11 3 25-8 32l-42 23 37 10c13 3 20 16 17 28"/>
<glyph glyph-name="st-seat" unicode="&#57443;" d="M361 434c-16 0-29-13-29-28l0-8 58 0 0 8c0 15-13 28-29 28z m0-119c16 0 29 13 29 29l0 7-58 0 0-7c0-16 13-29 29-29z m0-46c-42 0-76 33-76 75l0 62c0 41 34 74 76 74 42 0 76-33 76-74l0-62c0-42-34-75-76-75z m40-150l0 36-177 0c-11 0-21 8-23 20l-49 269-36 0 55-325z m23 83c13 0 24-11 24-23l0-83c0-13-11-23-24-23l-31 0 10-16c7-11 4-25-8-32-3-3-8-4-12-4-8 0-16 4-20 11l-26 41-109 0-26-41c-4-7-12-11-20-11-4 0-8 1-12 4-11 7-15 21-8 32l10 16-21 0c-12 0-22 8-24 19l-63 372c-1 6 1 13 6 18 4 6 11 9 18 9l84 0c11 0 21-8 23-19l41-225 88 0c13 0 24-11 24-24 0-10-6-18-15-21z"/>
<glyph glyph-name="st-share" unicode="&#57444;" d="M407 70c-19 0-35 16-35 35 0 19 16 35 35 35 19 0 35-16 35-35 0-19-16-35-35-35m-302 151c-19 0-35 16-35 35 0 19 16 35 35 35 19 0 35-16 35-35 0-19-16-35-35-35m302 221c19 0 35-16 35-35 0-19-16-35-35-35-19 0-35 16-35 35 0 19 16 35 35 35m0-253c-25 0-46-10-62-27l-159 71c2 7 3 15 3 23 0 8-1 16-3 23l159 71c16-17 37-27 62-27 46 0 84 37 84 84 0 46-38 84-84 84-47 0-84-38-84-84 0-5 1-9 1-13l-166-73c-14 11-33 19-53 19-46 0-84-38-84-84 0-46 38-84 84-84 20 0 39 8 53 19l166-73c0-4-1-8-1-13 0-46 37-84 84-84 46 0 84 38 84 84 0 47-38 84-84 84"/>
<glyph glyph-name="st-shopping" unicode="&#57445;" d="M431 76c-5-5-10-7-16-7l-318 0c-6 0-11 2-16 7-4 4-7 11-6 20l-1 50 364 0-1-52c1-7-2-14-6-18z m-299 251l0-8c0-13 11-23 25-23 13 0 25 10 25 23l0 8 148 0 0-8c0-13 12-23 25-23 14 0 25 10 25 23l0 8 60 0-1-133-365 0-2 133z m50 92c0 13 11 24 25 24l98 0c14 0 25-11 25-24l0-44-148 0z m198-44l0 44c0 40-33 72-75 72l-98 0c-42 0-75-32-75-72l0-44-111 0 4-278c-1-20 6-39 20-54 14-14 32-22 52-22l318 0c20 0 38 8 52 22 14 15 21 34 20 52l4 280z"/>
<glyph glyph-name="st-signin" unicode="&#57446;" d="M465 21l-269 0c-14 0-25 11-25 25l0 60c0 13 11 25 25 25 14 0 25-12 25-25l0-35 219 0 0 370-219 0 0-42c0-13-11-24-25-24-14 0-25 11-25 24l0 67c0 14 11 25 25 25l269 0c14 0 26-11 26-25l0-420c0-14-12-25-26-25z m-313 354l97-102c4-5 7-11 7-18 0-7-3-13-7-18l-97-103c-5-5-11-7-17-7-6 0-12 2-17 7-10 10-10 27 0 37l55 58-127 0c-14 0-25 12-25 26 0 14 11 26 25 26l127 0-55 58c-10 10-10 26 0 36 9 10 25 10 34 0z"/>
<glyph glyph-name="st-signout" unicode="&#57447;" d="M298 137c13 0 24-11 24-24l0-67c0-14-11-25-24-25l-253 0c-13 0-24 11-24 25l0 420c0 14 11 25 24 25l253 0c13 0 24-11 24-25l0-60c0-13-11-25-24-25-13 0-24 12-24 25l0 35-205 0 0-370 205 0 0 42c0 13 11 24 24 24z m186 138c9-10 9-26 0-35l-95-100c-5-5-11-7-17-7-6 0-12 2-17 7-9 10-9 26 0 35l55 57-210 0c-13 0-24 11-24 25 0 14 11 25 24 25l210 0-55 57c-9 10-9 25 0 35 9 10 24 10 34 0z"/>
<glyph glyph-name="st-sort" unicode="&#57448;" d="M165 21c-14 0-26 12-26 27l0 352-51-51c-10-10-27-10-38 0-10 11-10 27 0 38l96 96c8 7 20 10 30 6 9-5 16-14 16-25l0-416c0-15-12-27-27-27z m182 0c-4 0-7 1-11 2-10 4-16 14-16 25l0 416c0 15 12 27 27 27 14 0 26-12 26-27l0-352 51 51c10 10 27 10 38 0 10-11 10-27 0-38l-96-96c-6-5-12-8-19-8z"/>
<glyph glyph-name="st-star-fill" unicode="&#57449;" d="M486 341l-140 21-63 132c-11 24-43 24-54 0l-63-132-140-21c-25-4-35-37-17-55l101-103-23-146c-5-26 22-46 44-33l125 68 125-68c22-12 49 7 44 33l-23 146 101 103c18 18 8 51-17 55z"/>
<glyph glyph-name="st-success" unicode="&#57450;" d="M480 256c0-124-100-224-224-224-124 0-224 100-224 224 0 124 100 224 224 224 124 0 224-100 224-224z m-116 91c-13 12-33 12-46 0l-113-114-22 23c-13 12-33 12-46 0-12-12-12-33 0-45l46-46c12-12 32-12 45 0l136 136c12 13 12 33 0 46z"/>
<glyph glyph-name="st-tag" unicode="&#57451;" d="M171 384c23 0 42-19 42-43 0-23-19-42-42-42-24 0-43 19-43 42 0 24 19 43 43 43z m85 107c6 0 12-3 17-7l197-198 0-1c28-27 28-72 0-99l-145-144c-13-14-31-21-49-21-19 0-37 7-50 21l-198 197c-4 5-7 11-7 17l0 211c0 13 11 24 24 24z m-10-48l-177 0 0-177 191-190c5-6 12-7 16-7 3 0 10 1 15 7l145 144c9 8 9 22 0 31l-14 14 0 1z"/>
<glyph glyph-name="st-tax" unicode="&#57452;" d="M136 443c-14 0-25-11-25-24l0-326c0-13 11-24 25-24l240 0c14 0 25 11 25 24l0 326c0 13-11 24-25 24z m240-422l-240 0c-40 0-72 33-72 72l0 326c0 39 32 72 72 72l240 0c40 0 72-33 72-72l0-326c0-39-32-72-72-72z m-67 116l-106 0c-13 0-23 11-23 24 0 13 10 24 23 24l106 0c13 0 23-11 23-24 0-13-10-24-23-24z m0 85l-106 0c-13 0-23 10-23 23 0 14 10 24 23 24l106 0c13 0 23-10 23-24 0-13-10-23-23-23z m-133 147l-21 0 0 14 62 0 0-14-20 0 0-49-21 0z m77-23l-8 19-8-19z m-19 37l22 0 28-63-22 0-6 13-22 0-6-13-22 0z m75-32l-25 32 25 0 13-17 13 17 25 0-25-32 26-31-25 0-14 17-14-17-25 0z"/>
<glyph glyph-name="st-temple" unicode="&#57453;" d="M171 299l0 55c0 11 7 19 17 19l8 0 38 102c2 7 8 12 15 15 13 3 27-3 31-15l36-102 8 0c10 0 17-8 17-19l0-57c24-14 38-39 40-79 3-48 18-78 43-91 3-2 6-5 8-7 9-3 16-10 16-19l0-60c0-11-10-20-21-20l-342 0c-11 0-21 9-21 20l0 60c0 11 10 19 21 19l11 0 3 3c23 14 36 45 36 94 0 43 12 68 36 82z m-17-179l215 0c-18 24-28 56-30 96-3 42-19 54-49 58-7 1-14 1-28 1-3 0-4 0-6 0-50 0-78-6-78-58 0-40-8-73-24-97z m-47-39l0-20 298 0 0 20z m106 253l0-19 86 0 0 19z m56 44l-12 37-14-37z"/>
<glyph glyph-name="st-ticket-event" unicode="&#57454;" d="M441 147l0 218c0 18-15 33-32 33l-306 0c-17 0-32-15-32-33l0-218c0-18 15-33 32-33l306 0c17 0 32 15 32 33z m-32 301c45 0 82-37 82-83l0-218c0-46-37-83-82-83l-306 0c-45 0-82 37-82 83l0 218c0 46 37 83 82 83z m-20-122c13 0 24-12 24-25 0-14-11-26-24-26l-67 0c-13 0-25 12-25 26 0 13 12 25 25 25z m0-89c13 0 24-12 24-26 0-13-11-25-24-25l-67 0c-13 0-25 12-25 25 0 14 12 26 25 26z m-114 52c2 0 3-2 4-4 1-2 0-4-1-6l-40-39 9-55c0-2 0-4-2-6-1 0-2-1-3-1-1 0-2 1-3 1l-49 26-50-26c-1-1-4-1-5 0-2 2-3 4-3 6l10 55-40 39c-2 2-2 4-2 6 1 2 3 4 5 4l55 8 25 50c2 4 8 4 10 0l24-50z"/>
<glyph glyph-name="st-ticket-flight" unicode="&#57455;" d="M441 147l0 218c0 18-15 33-32 33l-306 0c-17 0-32-15-32-33l0-218c0-18 15-33 32-33l306 0c17 0 32 15 32 33z m-32 301c45 0 82-37 82-83l0-218c0-46-37-83-82-83l-306 0c-45 0-82 37-82 83l0 218c0 46 37 83 82 83z m-134-196c6-4 9-9 9-17-1-4-3-9-7-11-3-2-8-3-12-2l-56 16 0-6c0-12 0-23 0-35 3-2 6-5 9-7l3-2c6-4 6-6 6-13l0-2c0-6-2-8-4-10-2-1-5-2-9-1l-4 1c-6 1-13 3-19 5 0 0-1 0-3 0-6-2-12-4-18-5l-4-1c-2-1-3-1-4-1-3 0-4 1-6 2-2 2-4 4-4 10l0 2c0 7 1 9 7 13l3 2c3 2 6 5 9 7 0 12-1 23-1 35l0 6-56-16c-4-1-8 0-12 2-3 2-6 7-6 11-1 8 2 13 8 17 14 9 29 18 43 27l23 14c0 13 0 24 0 38 0 5 3 10 6 14 4 4 9 5 14 5 4 0 9-1 13-5 4-4 6-9 6-14 0-14 1-25 1-38l22-14c15-9 29-18 43-27z m114 74c13 0 24-12 24-25 0-14-11-26-24-26l-67 0c-13 0-25 12-25 26 0 13 12 25 25 25z m0-89c13 0 24-12 24-26 0-13-11-25-24-25l-67 0c-13 0-25 12-25 25 0 14 12 26 25 26z"/>
<glyph glyph-name="st-trash" unicode="&#57456;" d="M201 292c13 0 25-11 25-25l0-110c0-14-12-25-25-25-14 0-25 11-25 25l0 110c0 14 11 25 25 25z m110 0c14 0 25-11 25-25l0-110c0-14-11-25-25-25-13 0-25 11-25 25l0 110c0 14 12 25 25 25z m64-216l0 277-238 0 0-277c0-3 2-5 5-5l228 0c3 0 5 2 5 5z m-172 326l106 0 0 39-106 0z m241 0c14 0 25-11 25-25 0-13-11-24-25-24l-19 0 0-277c0-30-24-55-55-55l-228 0c-31 0-55 25-55 55l0 277-19 0c-14 0-25 11-25 24 0 14 11 25 25 25l85 0 0 64c0 14 12 25 25 25l156 0c13 0 25-11 25-25l0-64z"/>
<glyph glyph-name="st-tree" unicode="&#57457;" d="M367 422c68 0 124-53 124-118l0-94c0-56-42-104-99-116l0-49c0-13-11-24-25-24-13 0-25 11-25 24l0 49c-33 7-61 26-79 53-20-15-44-25-69-29l0-73c0-13-11-24-24-24-14 0-25 11-25 24l0 73c-71 11-124 70-124 139l0 94c1 67 51 124 119 137 69 13 138-21 165-82 19 10 40 16 62 16z m-123-118c0 24 7 47 22 67-4 18-13 34-27 47-28 27-70 35-107 21-37-15-61-50-61-88l0-94c0-43 30-80 74-91l0 67c0 13 11 24 25 24 13 0 24-11 24-24l0-67c20 5 38 15 51 30-1 5-1 9-1 14z m197-94l0 94c0 39-33 71-74 71-41 0-74-32-74-71l0-94c0-30 20-57 49-67l0 90c0 13 12 24 25 24 14 0 25-11 25-24l0-90c29 10 49 37 49 67z"/>
<glyph glyph-name="st-unseen" unicode="&#57458;" d="M180 416c-79-25-89-93-90-100l0-1c0 0 0 0 0 1 0-1 0-1 0-1l0 1c-1 7-12 75-90 100 0 0 82 10 90 95l0 1c0 0 0 0 0 0 0 0 0 0 0 0l0-1c8-85 90-95 90-95z m332-28c-58-20-65-72-66-78l0-1c0 0 0 1 0 1 0 0 0-1 0-1l0 1c-1 6-9 58-66 78 0 0 60 7 66 73l0 1c0 0 0-1 0-1 0 0 0 1 0 1l0-1c5-66 66-73 66-73z m-178 73c-44-14-50-50-51-54l0 0c0 0 0 0 0 0 0 0 0 0 0 0l0 0c0 4-6 40-50 54 0 0 46 5 50 51l0 0c0 0 0 0 0 0 0 0 0 0 0 0l0 0c5-46 51-51 51-51z m-327-261c65 106 153 171 250 171 97 0 185-65 250-171 6-8 6-21 0-29-65-106-153-171-250-171-97 0-185 65-250 171-5 9-5 21 0 29z m134-8c-4-68 49-124 115-124 3 0 5 0 8 0 57 4 104 51 107 109 5 70-53 127-122 123-58-4-104-50-108-108z m112 63c1 0 3 0 4 0 40 0 72-33 69-74-2-35-30-63-64-65-42-2-76 32-74 74 2 35 30 63 65 65z"/>
<glyph glyph-name="st-up" unicode="&#57459;" d="M51 251c11-10 28-10 39 0l138 130 0-312c0-15 13-26 28-26 15 0 28 11 28 26l0 312 138-130c11-10 28-10 39 0 5 5 8 11 8 18 0 7-3 14-8 19l-185 174c-6 5-13 7-20 7-7 0-14-2-20-7l-185-174c-5-5-8-12-8-19 0-7 3-13 8-18"/>
<glyph glyph-name="st-up-circle" unicode="&#57460;" d="M480 256c0-124-100-224-224-224-124 0-224 100-224 224 0 124 100 224 224 224 124 0 224-100 224-224z m-332-9c-12-13-12-33 0-46 13-12 33-12 46 0l67 68 68-68c13-12 33-12 46 0 12 13 12 33 0 46l-91 90c-12 13-33 13-45 0z"/>
<glyph glyph-name="st-vertical" unicode="&#57461;" d="M256 85c-24 0-43 19-43 43 0 24 19 43 43 43 24 0 43-19 43-43 0-24-19-43-43-43z m0 128c-24 0-43 19-43 43 0 24 19 43 43 43 24 0 43-19 43-43 0-24-19-43-43-43z m0 128c-24 0-43 19-43 43 0 24 19 43 43 43 24 0 43-19 43-43 0-24-19-43-43-43z"/>
<glyph glyph-name="st-view-close" unicode="&#57462;" d="M161 108l-73-73-45 45 64 65c-30 25-58 58-82 98-5 7-5 19 0 27 60 97 141 157 231 157 32 0 63-8 93-22l68 68 46-45-60-59c31-26 59-60 84-100 5-7 5-19 0-27-60-97-141-157-231-157-33 0-65 8-95 23z m101 40c53 4 96 47 99 100 4 64-49 117-113 113-53-3-96-46-99-99-5-65 49-118 113-114z m-2 44c-38-2-70 29-68 68 2 32 28 58 60 60 39 2 70-29 68-68-2-32-28-58-60-60z"/>
<glyph glyph-name="st-view-open" unicode="&#57463;" d="M256 427c-90 0-171-60-231-157-5-8-5-20 0-27 60-98 141-158 231-158 90 0 171 60 231 157 5 8 5 20 0 27-60 98-141 158-231 158z m6-279c-64-4-118 49-113 114 3 53 46 96 99 99 64 4 117-49 113-113-3-53-46-96-99-100z m-2 44c-38-2-70 29-68 68 2 32 28 58 60 60 39 2 70-29 68-68-2-32-28-58-60-60z"/>
<glyph glyph-name="st-visa" unicode="&#57464;" d="M120 218c-12 49 3 100 39 135 35 36 86 50 135 39z m-77 106c-4 8-3 18 1 27 4 9 11 15 20 18 11 4 18 14 18 25 0 10 3 19 10 26 6 6 15 10 25 10l1 0c11 0 21 7 25 18 3 9 9 16 18 20 9 4 18 5 27 1 11-4 23-1 30 8 6 8 14 13 24 14 9 0 19-3 26-9 8-7 20-8 30-2 8 5 18 6 27 4 9-3 17-9 21-17 3-5 7-9 12-11l-23-23c-73 29-157 12-213-43-55-56-72-140-43-213l-23-23c-2 5-6 9-11 11-8 5-14 12-17 22-2 9-1 19 5 27 5 9 4 22-3 30-6 7-9 17-9 26 1 9 6 18 14 24 8 7 12 19 8 30z m349-30c12-49-3-100-39-135-35-36-86-50-135-39z m77-106c4-8 3-18-1-27-4-9-11-15-20-18-11-4-18-14-18-25 0-10-3-19-10-26-6-6-15-10-25-10l-1 0c-11 0-21-7-25-18-3-9-9-16-18-20-9-4-18-5-27-1-11 4-23 1-30-8-6-8-14-13-24-14-9 0-19 3-26 9-8 7-20 8-30 2-8-5-18-6-27-4-9 3-17 9-21 17-3 5-7 9-12 11l23 23c73-29 157-12 213 43 55 56 72 140 43 213l23 23c2-5 6-9 11-11 8-5 14-12 17-22 2-9 1-19-5-27-5-9-4-22 3-30 6-7 9-17 9-26-1-9-6-18-14-24-8-7-12-19-8-30z m-338-121l-11 6-19-19 5-12c1-2 1-6-1-8-2-3-5-4-8-4-3 1-5 3-7 5l-30 67c-1 3-1 7 2 10 2 2 6 3 9 1l67-30c3-1 5-4 5-7 0-3-1-6-4-8-2-2-5-2-8-1z m-38 3l10 10-18 8z m66 21c-3 0-5 1-7 2l-24 24 0 1 0 0-18 18c-3 3-5 7-5 12 0 4 2 9 5 12l6 6c10 10 26 10 36 0 11-10 11-26 1-36l-7-6 19-19c2-2 3-6 1-9-1-3-4-5-7-5z m-19 51c3 2 3 5 3 8-1 3-3 5-6 6-3 1-7 0-9-2l-6-6 12-12z m67-3c-2 0-5 1-6 3l-42 42c-7 7-7 18 0 24l6 6c10 10 26 10 36 0 9-10 10-26 0-36l-6-6 18-18c2-3 3-6 2-9-2-4-5-6-8-6z m-18 51c3 3 3 9 0 12-4 3-9 3-12 0l-6-6 12-12z m99 30c0-4-4-8-9-8l-27 0 9-10c3-3 3-8 0-12-3-3-8-3-12 0l-42 42c-7 7-7 18 0 25l6 6c9 9 25 10 35 1 10-9 12-24 3-35l28 0c5 0 9-4 9-9z m-51 18c2 3 3 6 2 9-1 3-3 5-6 6-3 1-6 0-8-2l-6-6 12-13z m85 13c-5-5-12-8-18-8-7 0-14 3-19 8l-24 24c-10 10-10 26 0 36 10 10 26 10 36 0l25-24c10-10 10-26 0-36z m-49 36l24-24c3-3 6-3 9-3 3 1 5 4 6 6 1 3 0 7-2 9l-25 24c-2 2-5 3-8 2-3-1-5-3-6-6-1-3 0-6 2-8z m91 9c-2 0-3 1-5 2l-60 36c-4 2-5 8-3 12 3 4 8 5 12 3l31-19-19 31c-2 4-1 9 3 12 4 2 10 1 12-3l36-61c2-2 2-6 0-8-1-3-4-5-7-5z m36 37c-2 0-4 1-6 2l-24 24-24 25c-4 3-4 8 0 12l24 24c3 3 9 3 12 0 3-4 3-9 0-12l-18-18 12-12 12 12c2 2 5 3 8 2 3-1 6-3 6-6 1-3 0-6-2-8l-12-13 12-12 19 18c3 4 8 4 12 0 3-3 3-9 0-12l-25-24c-1-1-4-2-6-2z m48 48c-2 0-4 1-6 3l-48 48c-3 3-3 9 0 12l6 6c14 13 35 13 48 0l13-12c13-13 13-35 0-48l-6-6c-2-2-4-3-7-3z m-12 57c-6 6-17 6-24 0l36-36c7 6 7 17 0 24z"/>
<glyph glyph-name="st-waiting" unicode="&#57465;" d="M480 256c0-124-100-224-224-224-124 0-224 100-224 224 0 124 100 224 224 224 124 0 224-100 224-224z m-161-52l-31 32 0 116c0 18-14 32-32 32-18 0-32-14-32-32l0-128c0 0 0 0 0-1 0-8 3-17 9-23l41-41c12-12 33-12 45 0 13 13 13 33 0 45z"/>
<glyph glyph-name="st-website" unicode="&#57466;" d="M112 356c-13 0-23 11-23 24 0 13 10 24 23 24l35 0c13 0 24-11 24-24 0-13-11-24-24-24z m106 0c-13 0-24 11-24 24 0 13 11 24 24 24l34 0c13 0 24-11 24-24 0-13-11-24-24-24z m196-266c16 0 29 13 29 29l0 173-374 0 0-173c0-16 13-29 29-29z m-316 332c-16 0-29-13-29-29l0-53 374 0 0 53c0 16-13 29-29 29z m316 47c42 0 77-34 77-76l0-274c0-42-35-76-77-76l-316 0c-42 0-77 34-77 76l0 274c0 42 35 76 77 76z"/>
<glyph glyph-name="st-yacht" unicode="&#57467;" d="M141 395l0-118 109 27c0 1 1 0 1 0 2 1 3 1 5 1 2 0 3 0 5-1 0 0 1 1 1 0l109-27 0 118z m70 48l90 0 0 21-90 0z m143-274c5-7 12-13 19-17 0 1 0 1 0 2l33 65-150 37-150-37 33-65c0-1 0-2 1-4 8 5 15 11 20 19 5 6 13 9 21 9 7 0 15-3 20-9 12-18 34-29 56-29 23 0 44 11 57 29 5 6 12 9 20 9 8 0 16-3 20-9z m-250-77c-41 0-79 21-100 54-7 12-4 27 8 34 11 7 26 3 33-8 10-16 27-27 45-30l-41 82c-3 7-4 15 0 21 3 7 9 12 16 13l28 7 0 154c0 13 11 24 24 24l45 0 0 45c0 13 11 24 24 24l139 0c14 0 25-11 25-24l0-45 45 0c13 0 24-11 24-24l0-154 28-7c7-1 13-6 16-13 4-6 3-14 0-21l-42-83c19 3 36 13 47 28 7 11 23 13 34 6 11-8 13-23 6-34-22-31-58-49-97-49-29 0-56 10-77 28-21-18-48-28-77-28-28 0-55 10-76 28-21-18-49-28-77-28z m364-15c7 11 23 13 34 6 11-8 13-23 6-34-22-31-58-49-97-49-29 0-56 10-77 28-21-18-48-28-77-28-28 0-55 10-76 28-21-18-49-28-77-28-41 0-79 21-100 54-7 12-4 27 8 34 11 7 26 3 33-8 12-20 35-32 59-32 23 0 44 11 56 29 5 6 13 9 21 9 7 0 15-3 20-9 12-18 34-29 56-29 23 0 44 11 57 29 5 6 12 9 20 9 8 0 16-3 20-9 13-18 34-29 57-29 23 0 44 11 57 29z m-258 297c13 0 24-11 24-24 0-13-11-24-24-24l-23 0c-14 0-25 11-25 24 0 13 11 24 25 24z m92-48c-13 0-24 11-24 24 0 13 11 24 24 24l24 0c13 0 24-11 24-24 0-13-11-24-24-24z"/>
</font>
</defs>
</svg>
